# MagicaVoxel @ Ephtracy

# group
o 

# material
mtllib mushrrom2.mtl
usemtl palette

# normals
vn -1 0 0
vn 1 0 0
vn 0 0 1
vn 0 0 -1
vn 0 -1 0
vn 0 1 0

# texcoords
vt 0.970703 0.5
vt 0.974609 0.5
vt 0.978516 0.5

# verts
v -0.4 0.7 0.4
v -0.4 0.7 -0.4
v -0.4 0.8 0.4
v -0.4 0.8 -0.4
v -0.3 0.8 0.3
v -0.3 0.8 -0.3
v -0.3 0.9 0.3
v -0.3 0.9 -0.3
v -0.2 0 0.2
v -0.2 0 -0.2
v -0.2 0.2 0.1
v -0.2 0.2 -0.1
v -0.2 0.3 0.1
v -0.2 0.3 -0.1
v -0.2 0.4 0.2
v -0.2 0.4 0.1
v -0.2 0.4 -0.1
v -0.2 0.4 -0.2
v -0.2 0.5 0.2
v -0.2 0.5 0.1
v -0.2 0.5 -0.1
v -0.2 0.5 -0.2
v -0.2 0.7 0.2
v -0.2 0.7 -0.2
v -0.2 0.9 0.2
v -0.2 0.9 -0.2
v -0.2 1 0.2
v -0.2 1 -0.2
v 0.2 0 0.2
v 0.2 0 -0.2
v 0.2 0.7 0.2
v 0.2 0.7 -0.2
v 0.2 0.9 0.2
v 0.2 0.9 -0.2
v 0.2 1 0.2
v 0.2 1 -0.2
v 0.3 0.8 0.3
v 0.3 0.8 -0.3
v 0.3 0.9 0.3
v 0.3 0.9 -0.3
v 0.4 0.7 0.4
v 0.4 0.7 -0.4
v 0.4 0.8 0.4
v 0.4 0.8 -0.4
v -0.4 0.7 0.4
v -0.4 0.8 0.4
v 0.4 0.7 0.4
v 0.4 0.8 0.4
v -0.3 0.8 0.3
v -0.3 0.9 0.3
v 0.3 0.8 0.3
v 0.3 0.9 0.3
v -0.2 0 0.2
v -0.2 0.4 0.2
v -0.2 0.5 0.2
v -0.2 0.7 0.2
v -0.2 0.9 0.2
v -0.2 1 0.2
v -0.1 0.4 0.2
v -0.1 0.5 0.2
v 0.2 0 0.2
v 0.2 0.7 0.2
v 0.2 0.9 0.2
v 0.2 1 0.2
v -0.2 0 -0.2
v -0.2 0.4 -0.2
v -0.2 0.5 -0.2
v -0.2 0.7 -0.2
v -0.2 0.9 -0.2
v -0.2 1 -0.2
v -0.1 0.4 -0.2
v -0.1 0.5 -0.2
v 0.2 0 -0.2
v 0.2 0.7 -0.2
v 0.2 0.9 -0.2
v 0.2 1 -0.2
v -0.3 0.8 -0.3
v -0.3 0.9 -0.3
v 0.3 0.8 -0.3
v 0.3 0.9 -0.3
v -0.4 0.7 -0.4
v -0.4 0.8 -0.4
v 0.4 0.7 -0.4
v 0.4 0.8 -0.4
v -0.2 0 0.2
v 0.2 0 0.2
v -0.2 0 -0.2
v 0.2 0 -0.2
v -0.4 0.7 0.4
v 0.4 0.7 0.4
v -0.2 0.7 0.2
v 0.2 0.7 0.2
v -0.2 0.7 -0.2
v 0.2 0.7 -0.2
v -0.4 0.7 -0.4
v 0.4 0.7 -0.4
v -0.4 0.8 0.4
v 0.4 0.8 0.4
v -0.3 0.8 0.3
v 0.3 0.8 0.3
v -0.3 0.8 -0.3
v 0.3 0.8 -0.3
v -0.4 0.8 -0.4
v 0.4 0.8 -0.4
v -0.3 0.9 0.3
v 0.3 0.9 0.3
v -0.2 0.9 0.2
v 0.2 0.9 0.2
v -0.2 0.9 -0.2
v 0.2 0.9 -0.2
v -0.3 0.9 -0.3
v 0.3 0.9 -0.3
v -0.2 1 0.2
v 0.2 1 0.2
v -0.2 1 -0.2
v 0.2 1 -0.2

# faces
f 3/2/1 2/2/1 1/2/1
f 4/2/1 2/2/1 3/2/1
f 7/2/1 6/2/1 5/2/1
f 8/2/1 6/2/1 7/2/1
f 11/1/1 10/1/1 9/1/1
f 12/1/1 10/1/1 11/1/1
f 13/1/1 11/1/1 9/1/1
f 13/3/1 12/3/1 11/3/1
f 14/1/1 10/1/1 12/1/1
f 14/3/1 12/3/1 13/3/1
f 15/1/1 13/1/1 9/1/1
f 15/1/1 14/1/1 13/1/1
f 16/1/1 14/1/1 15/1/1
f 17/1/1 10/1/1 14/1/1
f 17/1/1 14/1/1 16/1/1
f 18/1/1 10/1/1 17/1/1
f 19/3/1 16/3/1 15/3/1
f 20/1/1 17/1/1 16/1/1
f 20/3/1 16/3/1 19/3/1
f 21/3/1 18/3/1 17/3/1
f 21/1/1 17/1/1 20/1/1
f 22/3/1 18/3/1 21/3/1
f 23/1/1 20/1/1 19/1/1
f 23/1/1 21/1/1 20/1/1
f 23/1/1 22/1/1 21/1/1
f 24/1/1 22/1/1 23/1/1
f 27/2/1 26/2/1 25/2/1
f 28/2/1 26/2/1 27/2/1
f 29/1/2 30/1/2 31/1/2
f 31/1/2 30/1/2 32/1/2
f 33/2/2 34/2/2 35/2/2
f 35/2/2 34/2/2 36/2/2
f 37/2/2 38/2/2 39/2/2
f 39/2/2 38/2/2 40/2/2
f 41/2/2 42/2/2 43/2/2
f 43/2/2 42/2/2 44/2/2
f 47/2/3 46/2/3 45/2/3
f 48/2/3 46/2/3 47/2/3
f 51/2/3 50/2/3 49/2/3
f 52/2/3 50/2/3 51/2/3
f 59/1/3 54/1/3 53/1/3
f 59/3/3 55/3/3 54/3/3
f 60/1/3 56/1/3 55/1/3
f 60/3/3 55/3/3 59/3/3
f 61/1/3 59/1/3 53/1/3
f 61/1/3 60/1/3 59/1/3
f 62/1/3 56/1/3 60/1/3
f 62/1/3 60/1/3 61/1/3
f 63/2/3 58/2/3 57/2/3
f 64/2/3 58/2/3 63/2/3
f 65/1/4 66/1/4 71/1/4
f 66/3/4 67/3/4 71/3/4
f 67/1/4 68/1/4 72/1/4
f 71/3/4 67/3/4 72/3/4
f 65/1/4 71/1/4 73/1/4
f 71/1/4 72/1/4 73/1/4
f 72/1/4 68/1/4 74/1/4
f 73/1/4 72/1/4 74/1/4
f 69/2/4 70/2/4 75/2/4
f 75/2/4 70/2/4 76/2/4
f 77/2/4 78/2/4 79/2/4
f 79/2/4 78/2/4 80/2/4
f 81/2/4 82/2/4 83/2/4
f 83/2/4 82/2/4 84/2/4
f 87/1/5 86/1/5 85/1/5
f 88/1/5 86/1/5 87/1/5
f 91/2/5 90/2/5 89/2/5
f 92/2/5 90/2/5 91/2/5
f 93/2/5 91/2/5 89/2/5
f 94/2/5 90/2/5 92/2/5
f 95/2/5 93/2/5 89/2/5
f 95/2/5 94/2/5 93/2/5
f 96/2/5 90/2/5 94/2/5
f 96/2/5 94/2/5 95/2/5
f 97/2/6 98/2/6 99/2/6
f 99/2/6 98/2/6 100/2/6
f 97/2/6 99/2/6 101/2/6
f 100/2/6 98/2/6 102/2/6
f 97/2/6 101/2/6 103/2/6
f 101/2/6 102/2/6 103/2/6
f 102/2/6 98/2/6 104/2/6
f 103/2/6 102/2/6 104/2/6
f 105/2/6 106/2/6 107/2/6
f 107/2/6 106/2/6 108/2/6
f 105/2/6 107/2/6 109/2/6
f 108/2/6 106/2/6 110/2/6
f 105/2/6 109/2/6 111/2/6
f 109/2/6 110/2/6 111/2/6
f 110/2/6 106/2/6 112/2/6
f 111/2/6 110/2/6 112/2/6
f 113/2/6 114/2/6 115/2/6
f 115/2/6 114/2/6 116/2/6
