# MagicaVoxel @ Ephtracy

# group
o 

# material
mtllib mushrrom4.mtl
usemtl palette

# normals
vn -1 0 0
vn 1 0 0
vn 0 0 1
vn 0 0 -1
vn 0 -1 0
vn 0 1 0

# texcoords
vt 0.970703 0.5
vt 0.974609 0.5
vt 0.978516 0.5

# verts
v -0.5 0.7 0.1
v -0.5 0.7 -0.1
v -0.5 0.8 0.1
v -0.5 0.8 -0.1
v -0.4 0.7 0.2
v -0.4 0.7 0.1
v -0.4 0.7 -0.1
v -0.4 0.7 -0.2
v -0.4 0.8 0.2
v -0.4 0.8 0.1
v -0.4 0.8 -0.1
v -0.4 0.8 -0.2
v -0.4 0.9 0.1
v -0.4 0.9 -0.1
v -0.3 0.7 0.3
v -0.3 0.7 0.2
v -0.3 0.7 -0.2
v -0.3 0.7 -0.3
v -0.3 0.8 0.3
v -0.3 0.8 0.2
v -0.3 0.8 0.1
v -0.3 0.8 -0.1
v -0.3 0.8 -0.2
v -0.3 0.8 -0.3
v -0.3 0.9 0.2
v -0.3 0.9 0.1
v -0.3 0.9 -0.1
v -0.3 0.9 -0.2
v -0.3 1 0.1
v -0.3 1 -0.1
v -0.2 0 0.2
v -0.2 0 -0.2
v -0.2 0.2 0.2
v -0.2 0.2 0.1
v -0.2 0.2 -0.1
v -0.2 0.2 -0.2
v -0.2 0.4 0.2
v -0.2 0.4 0.1
v -0.2 0.4 -0.1
v -0.2 0.4 -0.2
v -0.2 0.7 0.4
v -0.2 0.7 0.3
v -0.2 0.7 0.2
v -0.2 0.7 -0.2
v -0.2 0.7 -0.3
v -0.2 0.7 -0.4
v -0.2 0.8 0.4
v -0.2 0.8 0.3
v -0.2 0.8 0.2
v -0.2 0.8 -0.2
v -0.2 0.8 -0.3
v -0.2 0.8 -0.4
v -0.2 0.9 0.3
v -0.2 0.9 0.2
v -0.2 0.9 0.1
v -0.2 0.9 -0.1
v -0.2 0.9 -0.2
v -0.2 0.9 -0.3
v -0.2 1 0.2
v -0.2 1 0.1
v -0.2 1 -0.1
v -0.2 1 -0.2
v -0.1 0.7 0.5
v -0.1 0.7 0.4
v -0.1 0.7 -0.4
v -0.1 0.7 -0.5
v -0.1 0.8 0.5
v -0.1 0.8 0.4
v -0.1 0.8 0.3
v -0.1 0.8 -0.3
v -0.1 0.8 -0.4
v -0.1 0.8 -0.5
v -0.1 0.9 0.4
v -0.1 0.9 0.3
v -0.1 0.9 0.2
v -0.1 0.9 -0.2
v -0.1 0.9 -0.3
v -0.1 0.9 -0.4
v -0.1 1 0.3
v -0.1 1 0.2
v -0.1 1 -0.2
v -0.1 1 -0.3
v 0.1 0.8 0.3
v 0.1 0.8 0.2
v 0.1 0.8 -0.2
v 0.1 0.8 -0.3
v 0.1 0.9 0.3
v 0.1 0.9 0.2
v 0.1 0.9 -0.2
v 0.1 0.9 -0.3
v 0.2 0.8 0.2
v 0.2 0.8 0.1
v 0.2 0.8 -0.1
v 0.2 0.8 -0.2
v 0.2 0.9 0.2
v 0.2 0.9 0.1
v 0.2 0.9 -0.1
v 0.2 0.9 -0.2
v 0.3 0.8 0.1
v 0.3 0.8 -0.1
v 0.3 0.9 0.1
v 0.3 0.9 0
v 0.3 0.9 -0.1
v -0.3 0.8 0.1
v -0.3 0.8 -0.1
v -0.3 0.9 0.1
v -0.3 0.9 -0.1
v -0.2 0.8 0.2
v -0.2 0.8 0.1
v -0.2 0.8 -0.1
v -0.2 0.8 -0.2
v -0.2 0.9 0.2
v -0.2 0.9 0.1
v -0.2 0.9 -0.1
v -0.2 0.9 -0.2
v -0.1 0.8 0.3
v -0.1 0.8 0.2
v -0.1 0.8 -0.2
v -0.1 0.8 -0.3
v -0.1 0.9 0.3
v -0.1 0.9 0.2
v -0.1 0.9 -0.2
v -0.1 0.9 -0.3
v 0.1 0.7 0.5
v 0.1 0.7 0.4
v 0.1 0.7 -0.4
v 0.1 0.7 -0.5
v 0.1 0.8 0.5
v 0.1 0.8 0.4
v 0.1 0.8 0.3
v 0.1 0.8 -0.3
v 0.1 0.8 -0.4
v 0.1 0.8 -0.5
v 0.1 0.9 0.4
v 0.1 0.9 0.3
v 0.1 0.9 0.2
v 0.1 0.9 -0.2
v 0.1 0.9 -0.3
v 0.1 0.9 -0.4
v 0.1 1 0.3
v 0.1 1 0.2
v 0.1 1 -0.2
v 0.1 1 -0.3
v 0.2 0 0.2
v 0.2 0 -0.2
v 0.2 0.7 0.4
v 0.2 0.7 0.3
v 0.2 0.7 0.2
v 0.2 0.7 -0.2
v 0.2 0.7 -0.3
v 0.2 0.7 -0.4
v 0.2 0.8 0.4
v 0.2 0.8 0.3
v 0.2 0.8 0.2
v 0.2 0.8 -0.2
v 0.2 0.8 -0.3
v 0.2 0.8 -0.4
v 0.2 0.9 0.3
v 0.2 0.9 0.2
v 0.2 0.9 0.1
v 0.2 0.9 -0.1
v 0.2 0.9 -0.2
v 0.2 0.9 -0.3
v 0.2 1 0.2
v 0.2 1 0.1
v 0.2 1 -0.1
v 0.2 1 -0.2
v 0.3 0.7 0.3
v 0.3 0.7 0.2
v 0.3 0.7 -0.2
v 0.3 0.7 -0.3
v 0.3 0.8 0.3
v 0.3 0.8 0.2
v 0.3 0.8 0.1
v 0.3 0.8 -0.1
v 0.3 0.8 -0.2
v 0.3 0.8 -0.3
v 0.3 0.9 0.2
v 0.3 0.9 0.1
v 0.3 0.9 0
v 0.3 0.9 -0.1
v 0.3 0.9 -0.2
v 0.3 1 0.1
v 0.3 1 0
v 0.3 1 -0.1
v 0.4 0.7 0.2
v 0.4 0.7 0.1
v 0.4 0.7 -0.1
v 0.4 0.7 -0.2
v 0.4 0.8 0.2
v 0.4 0.8 0.1
v 0.4 0.8 -0.1
v 0.4 0.8 -0.2
v 0.4 0.9 0.1
v 0.4 0.9 -0.1
v 0.5 0.7 0.1
v 0.5 0.7 -0.1
v 0.5 0.8 0.1
v 0.5 0.8 -0.1
v -0.1 0.7 0.5
v -0.1 0.8 0.5
v 0.1 0.7 0.5
v 0.1 0.8 0.5
v -0.2 0.7 0.4
v -0.2 0.8 0.4
v -0.1 0.7 0.4
v -0.1 0.8 0.4
v -0.1 0.9 0.4
v 0.1 0.7 0.4
v 0.1 0.8 0.4
v 0.1 0.9 0.4
v 0.2 0.7 0.4
v 0.2 0.8 0.4
v -0.3 0.7 0.3
v -0.3 0.8 0.3
v -0.2 0.7 0.3
v -0.2 0.8 0.3
v -0.2 0.9 0.3
v -0.1 0.8 0.3
v -0.1 0.9 0.3
v -0.1 1 0.3
v 0 0.9 0.3
v 0 1 0.3
v 0.1 0.8 0.3
v 0.1 0.9 0.3
v 0.1 1 0.3
v 0.2 0.7 0.3
v 0.2 0.8 0.3
v 0.2 0.9 0.3
v 0.3 0.7 0.3
v 0.3 0.8 0.3
v -0.4 0.7 0.2
v -0.4 0.8 0.2
v -0.3 0.7 0.2
v -0.3 0.8 0.2
v -0.3 0.9 0.2
v -0.2 0 0.2
v -0.2 0.2 0.2
v -0.2 0.4 0.2
v -0.2 0.7 0.2
v -0.2 0.8 0.2
v -0.2 0.9 0.2
v -0.2 1 0.2
v -0.1 0.2 0.2
v -0.1 0.4 0.2
v -0.1 0.9 0.2
v -0.1 1 0.2
v 0.1 0.9 0.2
v 0.1 1 0.2
v 0.2 0 0.2
v 0.2 0.7 0.2
v 0.2 0.8 0.2
v 0.2 0.9 0.2
v 0.2 1 0.2
v 0.3 0.7 0.2
v 0.3 0.8 0.2
v 0.3 0.9 0.2
v 0.4 0.7 0.2
v 0.4 0.8 0.2
v -0.5 0.7 0.1
v -0.5 0.8 0.1
v -0.4 0.7 0.1
v -0.4 0.8 0.1
v -0.4 0.9 0.1
v -0.3 0.8 0.1
v -0.3 0.9 0.1
v -0.3 1 0.1
v -0.2 0.9 0.1
v -0.2 1 0.1
v 0.2 0.9 0.1
v 0.2 1 0.1
v 0.3 0.8 0.1
v 0.3 0.9 0.1
v 0.3 1 0.1
v 0.4 0.7 0.1
v 0.4 0.8 0.1
v 0.4 0.9 0.1
v 0.5 0.7 0.1
v 0.5 0.8 0.1
v -0.3 0.8 -0.1
v -0.3 0.9 -0.1
v -0.2 0.8 -0.1
v -0.2 0.9 -0.1
v 0.2 0.8 -0.1
v 0.2 0.9 -0.1
v 0.3 0.8 -0.1
v 0.3 0.9 -0.1
v -0.2 0.8 -0.2
v -0.2 0.9 -0.2
v -0.1 0.8 -0.2
v -0.1 0.9 -0.2
v 0.1 0.8 -0.2
v 0.1 0.9 -0.2
v 0.2 0.8 -0.2
v 0.2 0.9 -0.2
v -0.1 0.8 -0.3
v -0.1 0.9 -0.3
v 0 0.8 -0.3
v 0 0.9 -0.3
v 0.1 0.8 -0.3
v 0.1 0.9 -0.3
v -0.1 0.8 0.3
v -0.1 0.9 0.3
v 0 0.9 0.3
v 0.1 0.8 0.3
v 0.1 0.9 0.3
v -0.2 0.8 0.2
v -0.2 0.9 0.2
v -0.1 0.8 0.2
v -0.1 0.9 0.2
v 0.1 0.8 0.2
v 0.1 0.9 0.2
v 0.2 0.8 0.2
v 0.2 0.9 0.2
v -0.3 0.8 0.1
v -0.3 0.9 0.1
v -0.2 0.8 0.1
v -0.2 0.9 0.1
v 0.2 0.8 0.1
v 0.2 0.9 0.1
v 0.3 0.8 0.1
v 0.3 0.9 0.1
v -0.5 0.7 -0.1
v -0.5 0.8 -0.1
v -0.4 0.7 -0.1
v -0.4 0.8 -0.1
v -0.4 0.9 -0.1
v -0.3 0.8 -0.1
v -0.3 0.9 -0.1
v -0.3 1 -0.1
v -0.2 0.9 -0.1
v -0.2 1 -0.1
v 0.2 0.9 -0.1
v 0.2 1 -0.1
v 0.3 0.8 -0.1
v 0.3 0.9 -0.1
v 0.3 1 -0.1
v 0.4 0.7 -0.1
v 0.4 0.8 -0.1
v 0.4 0.9 -0.1
v 0.5 0.7 -0.1
v 0.5 0.8 -0.1
v -0.4 0.7 -0.2
v -0.4 0.8 -0.2
v -0.3 0.7 -0.2
v -0.3 0.8 -0.2
v -0.3 0.9 -0.2
v -0.2 0 -0.2
v -0.2 0.2 -0.2
v -0.2 0.4 -0.2
v -0.2 0.7 -0.2
v -0.2 0.8 -0.2
v -0.2 0.9 -0.2
v -0.2 1 -0.2
v -0.1 0.2 -0.2
v -0.1 0.4 -0.2
v -0.1 0.9 -0.2
v -0.1 1 -0.2
v 0.1 0.9 -0.2
v 0.1 1 -0.2
v 0.2 0 -0.2
v 0.2 0.7 -0.2
v 0.2 0.8 -0.2
v 0.2 0.9 -0.2
v 0.2 1 -0.2
v 0.3 0.7 -0.2
v 0.3 0.8 -0.2
v 0.3 0.9 -0.2
v 0.4 0.7 -0.2
v 0.4 0.8 -0.2
v -0.3 0.7 -0.3
v -0.3 0.8 -0.3
v -0.2 0.7 -0.3
v -0.2 0.8 -0.3
v -0.2 0.9 -0.3
v -0.1 0.8 -0.3
v -0.1 0.9 -0.3
v -0.1 1 -0.3
v 0 0.9 -0.3
v 0 1 -0.3
v 0.1 0.8 -0.3
v 0.1 0.9 -0.3
v 0.1 1 -0.3
v 0.2 0.7 -0.3
v 0.2 0.8 -0.3
v 0.2 0.9 -0.3
v 0.3 0.7 -0.3
v 0.3 0.8 -0.3
v -0.2 0.7 -0.4
v -0.2 0.8 -0.4
v -0.1 0.7 -0.4
v -0.1 0.8 -0.4
v -0.1 0.9 -0.4
v 0 0.8 -0.4
v 0 0.9 -0.4
v 0.1 0.7 -0.4
v 0.1 0.8 -0.4
v 0.1 0.9 -0.4
v 0.2 0.7 -0.4
v 0.2 0.8 -0.4
v -0.1 0.7 -0.5
v -0.1 0.8 -0.5
v 0.1 0.7 -0.5
v 0.1 0.8 -0.5
v -0.2 0 0.2
v 0.2 0 0.2
v -0.2 0 -0.2
v 0.2 0 -0.2
v -0.1 0.7 0.5
v 0.1 0.7 0.5
v -0.2 0.7 0.4
v -0.1 0.7 0.4
v 0.1 0.7 0.4
v 0.2 0.7 0.4
v -0.3 0.7 0.3
v -0.2 0.7 0.3
v -0.1 0.7 0.3
v 0.2 0.7 0.3
v 0.3 0.7 0.3
v -0.4 0.7 0.2
v -0.3 0.7 0.2
v -0.2 0.7 0.2
v 0.2 0.7 0.2
v 0.3 0.7 0.2
v 0.4 0.7 0.2
v -0.5 0.7 0.1
v -0.4 0.7 0.1
v -0.3 0.7 0.1
v 0.4 0.7 0.1
v 0.5 0.7 0.1
v -0.5 0.7 -0.1
v -0.4 0.7 -0.1
v 0.4 0.7 -0.1
v 0.5 0.7 -0.1
v -0.4 0.7 -0.2
v -0.3 0.7 -0.2
v -0.2 0.7 -0.2
v 0.2 0.7 -0.2
v 0.3 0.7 -0.2
v 0.4 0.7 -0.2
v -0.3 0.7 -0.3
v -0.2 0.7 -0.3
v 0.2 0.7 -0.3
v 0.3 0.7 -0.3
v -0.2 0.7 -0.4
v -0.1 0.7 -0.4
v 0.1 0.7 -0.4
v 0.2 0.7 -0.4
v -0.1 0.7 -0.5
v 0.1 0.7 -0.5
v -0.1 0.9 0.3
v 0 0.9 0.3
v 0.1 0.9 0.3
v -0.2 0.9 0.2
v -0.1 0.9 0.2
v 0.1 0.9 0.2
v 0.2 0.9 0.2
v -0.3 0.9 0.1
v -0.2 0.9 0.1
v 0.2 0.9 0.1
v 0.3 0.9 0.1
v 0 0.9 0
v 0.3 0.9 0
v -0.3 0.9 -0.1
v -0.2 0.9 -0.1
v -0.1 0.9 -0.1
v 0.2 0.9 -0.1
v 0.3 0.9 -0.1
v -0.2 0.9 -0.2
v -0.1 0.9 -0.2
v 0 0.9 -0.2
v 0.1 0.9 -0.2
v 0.2 0.9 -0.2
v -0.1 0.9 -0.3
v 0 0.9 -0.3
v 0.1 0.9 -0.3
v -0.1 0.8 0.5
v 0.1 0.8 0.5
v -0.2 0.8 0.4
v -0.1 0.8 0.4
v 0.1 0.8 0.4
v 0.2 0.8 0.4
v -0.3 0.8 0.3
v -0.2 0.8 0.3
v -0.1 0.8 0.3
v 0.1 0.8 0.3
v 0.2 0.8 0.3
v 0.3 0.8 0.3
v -0.4 0.8 0.2
v -0.3 0.8 0.2
v -0.2 0.8 0.2
v -0.1 0.8 0.2
v 0.1 0.8 0.2
v 0.2 0.8 0.2
v 0.3 0.8 0.2
v 0.4 0.8 0.2
v -0.5 0.8 0.1
v -0.4 0.8 0.1
v -0.3 0.8 0.1
v -0.2 0.8 0.1
v 0.2 0.8 0.1
v 0.3 0.8 0.1
v 0.4 0.8 0.1
v 0.5 0.8 0.1
v -0.5 0.8 -0.1
v -0.4 0.8 -0.1
v -0.3 0.8 -0.1
v -0.2 0.8 -0.1
v 0.2 0.8 -0.1
v 0.3 0.8 -0.1
v 0.4 0.8 -0.1
v 0.5 0.8 -0.1
v -0.4 0.8 -0.2
v -0.3 0.8 -0.2
v -0.2 0.8 -0.2
v -0.1 0.8 -0.2
v 0.1 0.8 -0.2
v 0.2 0.8 -0.2
v 0.3 0.8 -0.2
v 0.4 0.8 -0.2
v -0.3 0.8 -0.3
v -0.2 0.8 -0.3
v -0.1 0.8 -0.3
v 0 0.8 -0.3
v 0.1 0.8 -0.3
v 0.2 0.8 -0.3
v 0.3 0.8 -0.3
v -0.2 0.8 -0.4
v -0.1 0.8 -0.4
v 0 0.8 -0.4
v 0.1 0.8 -0.4
v 0.2 0.8 -0.4
v -0.1 0.8 -0.5
v 0.1 0.8 -0.5
v -0.1 0.9 0.4
v 0.1 0.9 0.4
v -0.2 0.9 0.3
v -0.1 0.9 0.3
v 0 0.9 0.3
v 0.1 0.9 0.3
v 0.2 0.9 0.3
v -0.3 0.9 0.2
v -0.2 0.9 0.2
v -0.1 0.9 0.2
v 0.1 0.9 0.2
v 0.2 0.9 0.2
v 0.3 0.9 0.2
v -0.4 0.9 0.1
v -0.3 0.9 0.1
v -0.2 0.9 0.1
v 0.2 0.9 0.1
v 0.3 0.9 0.1
v 0.4 0.9 0.1
v 0.3 0.9 0
v -0.4 0.9 -0.1
v -0.3 0.9 -0.1
v -0.2 0.9 -0.1
v 0.2 0.9 -0.1
v 0.3 0.9 -0.1
v 0.4 0.9 -0.1
v -0.3 0.9 -0.2
v -0.2 0.9 -0.2
v -0.1 0.9 -0.2
v 0.1 0.9 -0.2
v 0.2 0.9 -0.2
v 0.3 0.9 -0.2
v -0.2 0.9 -0.3
v -0.1 0.9 -0.3
v 0 0.9 -0.3
v 0.1 0.9 -0.3
v 0.2 0.9 -0.3
v -0.1 0.9 -0.4
v 0 0.9 -0.4
v 0.1 0.9 -0.4
v -0.1 1 0.3
v 0 1 0.3
v 0.1 1 0.3
v -0.2 1 0.2
v -0.1 1 0.2
v 0.1 1 0.2
v 0.2 1 0.2
v -0.3 1 0.1
v -0.2 1 0.1
v 0.2 1 0.1
v 0.3 1 0.1
v 0 1 0
v 0.3 1 0
v -0.3 1 -0.1
v -0.2 1 -0.1
v -0.1 1 -0.1
v 0.2 1 -0.1
v 0.3 1 -0.1
v -0.2 1 -0.2
v -0.1 1 -0.2
v 0 1 -0.2
v 0.1 1 -0.2
v 0.2 1 -0.2
v -0.1 1 -0.3
v 0 1 -0.3
v 0.1 1 -0.3

# faces
f 3/2/1 2/2/1 1/2/1
f 4/2/1 2/2/1 3/2/1
f 9/3/1 6/3/1 5/3/1
f 10/3/1 6/3/1 9/3/1
f 11/2/1 8/2/1 7/2/1
f 12/2/1 8/2/1 11/2/1
f 13/2/1 11/2/1 10/2/1
f 14/2/1 11/2/1 13/2/1
f 19/3/1 16/3/1 15/3/1
f 20/3/1 16/3/1 19/3/1
f 23/3/1 18/3/1 17/3/1
f 24/3/1 18/3/1 23/3/1
f 25/3/1 21/3/1 20/3/1
f 26/3/1 21/3/1 25/3/1
f 27/3/1 23/3/1 22/3/1
f 28/3/1 23/3/1 27/3/1
f 29/2/1 27/2/1 26/2/1
f 30/2/1 27/2/1 29/2/1
f 33/1/1 32/1/1 31/1/1
f 34/1/1 32/1/1 33/1/1
f 35/1/1 32/1/1 34/1/1
f 36/1/1 32/1/1 35/1/1
f 37/3/1 34/3/1 33/3/1
f 38/1/1 35/1/1 34/1/1
f 38/3/1 34/3/1 37/3/1
f 39/3/1 36/3/1 35/3/1
f 39/1/1 35/1/1 38/1/1
f 40/3/1 36/3/1 39/3/1
f 43/1/1 38/1/1 37/1/1
f 43/1/1 39/1/1 38/1/1
f 43/1/1 40/1/1 39/1/1
f 44/1/1 40/1/1 43/1/1
f 47/3/1 42/3/1 41/3/1
f 48/3/1 42/3/1 47/3/1
f 51/2/1 46/2/1 45/2/1
f 52/2/1 46/2/1 51/2/1
f 53/3/1 49/3/1 48/3/1
f 54/3/1 49/3/1 53/3/1
f 57/3/1 51/3/1 50/3/1
f 58/3/1 51/3/1 57/3/1
f 59/2/1 55/2/1 54/2/1
f 60/2/1 55/2/1 59/2/1
f 61/3/1 57/3/1 56/3/1
f 62/3/1 57/3/1 61/3/1
f 67/2/1 64/2/1 63/2/1
f 68/2/1 64/2/1 67/2/1
f 71/2/1 66/2/1 65/2/1
f 72/2/1 66/2/1 71/2/1
f 73/2/1 69/2/1 68/2/1
f 74/2/1 69/2/1 73/2/1
f 77/3/1 71/3/1 70/3/1
f 78/3/1 71/3/1 77/3/1
f 79/2/1 75/2/1 74/2/1
f 80/2/1 75/2/1 79/2/1
f 81/3/1 77/3/1 76/3/1
f 82/3/1 77/3/1 81/3/1
f 87/3/1 84/3/1 83/3/1
f 88/3/1 84/3/1 87/3/1
f 89/2/1 86/2/1 85/2/1
f 90/2/1 86/2/1 89/2/1
f 95/3/1 92/3/1 91/3/1
f 96/3/1 92/3/1 95/3/1
f 97/2/1 94/2/1 93/2/1
f 98/2/1 94/2/1 97/2/1
f 101/2/1 100/2/1 99/2/1
f 102/2/1 100/2/1 101/2/1
f 103/2/1 100/2/1 102/2/1
f 104/2/2 105/2/2 106/2/2
f 106/2/2 105/2/2 107/2/2
f 108/3/2 109/3/2 112/3/2
f 112/3/2 109/3/2 113/3/2
f 110/3/2 111/3/2 114/3/2
f 114/3/2 111/3/2 115/3/2
f 116/3/2 117/3/2 120/3/2
f 120/3/2 117/3/2 121/3/2
f 118/3/2 119/3/2 122/3/2
f 122/3/2 119/3/2 123/3/2
f 124/2/2 125/2/2 128/2/2
f 128/2/2 125/2/2 129/2/2
f 126/2/2 127/2/2 132/2/2
f 132/2/2 127/2/2 133/2/2
f 129/2/2 130/2/2 134/2/2
f 134/2/2 130/2/2 135/2/2
f 131/2/2 132/2/2 138/2/2
f 138/2/2 132/2/2 139/2/2
f 135/3/2 136/3/2 140/3/2
f 140/3/2 136/3/2 141/3/2
f 137/2/2 138/2/2 142/2/2
f 142/2/2 138/2/2 143/2/2
f 144/1/2 145/1/2 148/1/2
f 148/1/2 145/1/2 149/1/2
f 146/2/2 147/2/2 152/2/2
f 152/2/2 147/2/2 153/2/2
f 150/2/2 151/2/2 156/2/2
f 156/2/2 151/2/2 157/2/2
f 153/3/2 154/3/2 158/3/2
f 158/3/2 154/3/2 159/3/2
f 155/2/2 156/2/2 162/2/2
f 162/2/2 156/2/2 163/2/2
f 159/3/2 160/3/2 164/3/2
f 164/3/2 160/3/2 165/3/2
f 161/2/2 162/2/2 166/2/2
f 166/2/2 162/2/2 167/2/2
f 168/2/2 169/2/2 172/2/2
f 172/2/2 169/2/2 173/2/2
f 170/2/2 171/2/2 176/2/2
f 176/2/2 171/2/2 177/2/2
f 173/3/2 174/3/2 178/3/2
f 178/3/2 174/3/2 179/3/2
f 175/2/2 176/2/2 181/2/2
f 181/2/2 176/2/2 182/2/2
f 179/3/2 180/3/2 183/3/2
f 180/2/2 181/2/2 184/2/2
f 183/3/2 180/3/2 184/3/2
f 184/2/2 181/2/2 185/2/2
f 186/2/2 187/2/2 190/2/2
f 190/2/2 187/2/2 191/2/2
f 188/2/2 189/2/2 192/2/2
f 192/2/2 189/2/2 193/2/2
f 191/2/2 192/2/2 194/2/2
f 194/2/2 192/2/2 195/2/2
f 196/2/2 197/2/2 198/2/2
f 198/2/2 197/2/2 199/2/2
f 202/2/3 201/2/3 200/2/3
f 203/2/3 201/2/3 202/2/3
f 206/3/3 205/3/3 204/3/3
f 207/3/3 205/3/3 206/3/3
f 210/2/3 208/2/3 207/2/3
f 211/2/3 208/2/3 210/2/3
f 212/2/3 210/2/3 209/2/3
f 213/2/3 210/2/3 212/2/3
f 216/3/3 215/3/3 214/3/3
f 217/3/3 215/3/3 216/3/3
f 219/3/3 218/3/3 217/3/3
f 220/3/3 218/3/3 219/3/3
f 222/2/3 221/2/3 220/2/3
f 223/2/3 221/2/3 222/2/3
f 225/3/3 223/3/3 222/3/3
f 226/3/3 223/3/3 225/3/3
f 228/3/3 225/3/3 224/3/3
f 229/3/3 225/3/3 228/3/3
f 230/2/3 228/2/3 227/2/3
f 231/2/3 228/2/3 230/2/3
f 234/3/3 233/3/3 232/3/3
f 235/3/3 233/3/3 234/3/3
f 241/3/3 236/3/3 235/3/3
f 242/3/3 236/3/3 241/3/3
f 244/1/3 238/1/3 237/1/3
f 244/3/3 239/3/3 238/3/3
f 245/1/3 240/1/3 239/1/3
f 245/3/3 239/3/3 244/3/3
f 246/2/3 243/2/3 242/2/3
f 247/2/3 243/2/3 246/2/3
f 250/1/3 244/1/3 237/1/3
f 250/1/3 245/1/3 244/1/3
f 251/1/3 240/1/3 245/1/3
f 251/1/3 245/1/3 250/1/3
f 253/3/3 249/3/3 248/3/3
f 254/3/3 249/3/3 253/3/3
f 256/3/3 253/3/3 252/3/3
f 257/3/3 253/3/3 256/3/3
f 258/2/3 256/2/3 255/2/3
f 259/2/3 256/2/3 258/2/3
f 262/2/3 261/2/3 260/2/3
f 263/2/3 261/2/3 262/2/3
f 265/2/3 264/2/3 263/2/3
f 266/2/3 264/2/3 265/2/3
f 268/2/3 267/2/3 266/2/3
f 269/2/3 267/2/3 268/2/3
f 273/3/3 271/3/3 270/3/3
f 274/3/3 271/3/3 273/3/3
f 276/2/3 273/2/3 272/2/3
f 277/2/3 273/2/3 276/2/3
f 278/2/3 276/2/3 275/2/3
f 279/2/3 276/2/3 278/2/3
f 282/3/3 281/3/3 280/3/3
f 283/3/3 281/3/3 282/3/3
f 286/2/3 285/2/3 284/2/3
f 287/2/3 285/2/3 286/2/3
f 290/3/3 289/3/3 288/3/3
f 291/3/3 289/3/3 290/3/3
f 294/2/3 293/2/3 292/2/3
f 295/2/3 293/2/3 294/2/3
f 298/3/3 297/3/3 296/3/3
f 299/3/3 297/3/3 298/3/3
f 300/2/3 299/2/3 298/2/3
f 301/2/3 299/2/3 300/2/3
f 302/2/4 303/2/4 304/2/4
f 302/2/4 304/2/4 305/2/4
f 305/2/4 304/2/4 306/2/4
f 307/3/4 308/3/4 309/3/4
f 309/3/4 308/3/4 310/3/4
f 311/3/4 312/3/4 313/3/4
f 313/3/4 312/3/4 314/3/4
f 315/3/4 316/3/4 317/3/4
f 317/3/4 316/3/4 318/3/4
f 319/3/4 320/3/4 321/3/4
f 321/3/4 320/3/4 322/3/4
f 323/2/4 324/2/4 325/2/4
f 325/2/4 324/2/4 326/2/4
f 326/2/4 327/2/4 328/2/4
f 328/2/4 327/2/4 329/2/4
f 329/2/4 330/2/4 331/2/4
f 331/2/4 330/2/4 332/2/4
f 333/2/4 334/2/4 336/2/4
f 336/2/4 334/2/4 337/2/4
f 335/2/4 336/2/4 339/2/4
f 339/2/4 336/2/4 340/2/4
f 338/2/4 339/2/4 341/2/4
f 341/2/4 339/2/4 342/2/4
f 343/2/4 344/2/4 345/2/4
f 345/2/4 344/2/4 346/2/4
f 346/3/4 347/3/4 352/3/4
f 352/3/4 347/3/4 353/3/4
f 348/1/4 349/1/4 355/1/4
f 349/3/4 350/3/4 355/3/4
f 350/1/4 351/1/4 356/1/4
f 355/3/4 350/3/4 356/3/4
f 353/3/4 354/3/4 357/3/4
f 357/3/4 354/3/4 358/3/4
f 348/1/4 355/1/4 361/1/4
f 355/1/4 356/1/4 361/1/4
f 356/1/4 351/1/4 362/1/4
f 361/1/4 356/1/4 362/1/4
f 359/2/4 360/2/4 364/2/4
f 364/2/4 360/2/4 365/2/4
f 363/2/4 364/2/4 367/2/4
f 367/2/4 364/2/4 368/2/4
f 366/2/4 367/2/4 369/2/4
f 369/2/4 367/2/4 370/2/4
f 371/3/4 372/3/4 373/3/4
f 373/3/4 372/3/4 374/3/4
f 374/3/4 375/3/4 376/3/4
f 376/3/4 375/3/4 377/3/4
f 377/3/4 378/3/4 379/3/4
f 379/3/4 378/3/4 380/3/4
f 379/2/4 380/2/4 382/2/4
f 382/2/4 380/2/4 383/2/4
f 381/2/4 382/2/4 385/2/4
f 385/2/4 382/2/4 386/2/4
f 384/2/4 385/2/4 387/2/4
f 387/2/4 385/2/4 388/2/4
f 389/2/4 390/2/4 391/2/4
f 391/2/4 390/2/4 392/2/4
f 392/3/4 393/3/4 394/3/4
f 394/3/4 393/3/4 395/3/4
f 394/2/4 395/2/4 397/2/4
f 397/2/4 395/2/4 398/2/4
f 396/2/4 397/2/4 399/2/4
f 399/2/4 397/2/4 400/2/4
f 401/2/4 402/2/4 403/2/4
f 403/2/4 402/2/4 404/2/4
f 407/1/5 406/1/5 405/1/5
f 408/1/5 406/1/5 407/1/5
f 412/2/5 410/2/5 409/2/5
f 413/2/5 410/2/5 412/2/5
f 416/3/5 412/3/5 411/3/5
f 417/2/5 414/2/5 413/2/5
f 417/2/5 413/2/5 412/2/5
f 417/3/5 412/3/5 416/3/5
f 418/2/5 414/2/5 417/2/5
f 421/3/5 416/3/5 415/3/5
f 422/2/5 419/2/5 418/2/5
f 422/2/5 417/2/5 416/2/5
f 422/3/5 416/3/5 421/3/5
f 422/2/5 418/2/5 417/2/5
f 423/2/5 419/2/5 422/2/5
f 424/2/5 419/2/5 423/2/5
f 427/3/5 421/3/5 420/3/5
f 428/2/5 422/2/5 421/2/5
f 428/3/5 421/3/5 427/3/5
f 429/2/5 424/2/5 423/2/5
f 429/2/5 425/2/5 424/2/5
f 431/2/5 427/2/5 426/2/5
f 431/2/5 428/2/5 427/2/5
f 432/2/5 428/2/5 431/2/5
f 433/2/5 430/2/5 429/2/5
f 433/2/5 429/2/5 423/2/5
f 434/2/5 430/2/5 433/2/5
f 435/2/5 428/2/5 432/2/5
f 436/2/5 422/2/5 428/2/5
f 436/2/5 428/2/5 435/2/5
f 437/2/5 422/2/5 436/2/5
f 438/2/5 433/2/5 423/2/5
f 439/2/5 433/2/5 438/2/5
f 440/2/5 433/2/5 439/2/5
f 441/3/5 437/3/5 436/3/5
f 442/2/5 439/2/5 438/2/5
f 442/3/5 437/3/5 441/3/5
f 442/2/5 438/2/5 437/2/5
f 443/2/5 439/2/5 442/2/5
f 444/2/5 439/2/5 443/2/5
f 445/2/5 443/2/5 442/2/5
f 446/2/5 443/2/5 445/2/5
f 447/2/5 443/2/5 446/2/5
f 448/2/5 443/2/5 447/2/5
f 449/2/5 447/2/5 446/2/5
f 450/2/5 447/2/5 449/2/5
f 455/2/5 452/2/5 451/2/5
f 456/3/5 453/3/5 452/3/5
f 459/2/5 455/2/5 454/2/5
f 460/3/5 457/3/5 456/3/5
f 462/2/5 459/2/5 458/2/5
f 462/3/5 461/3/5 460/3/5
f 462/3/5 460/3/5 456/3/5
f 462/2/5 455/2/5 459/2/5
f 462/2/5 452/2/5 455/2/5
f 462/3/5 456/3/5 452/3/5
f 463/3/5 461/3/5 462/3/5
f 464/2/5 462/2/5 458/2/5
f 464/2/5 463/2/5 462/2/5
f 465/2/5 463/2/5 464/2/5
f 466/2/5 463/2/5 465/2/5
f 467/2/5 463/2/5 466/2/5
f 468/2/5 463/2/5 467/2/5
f 469/3/5 466/3/5 465/3/5
f 470/2/5 467/2/5 466/2/5
f 470/3/5 466/3/5 469/3/5
f 471/2/5 467/2/5 470/2/5
f 472/2/5 467/2/5 471/2/5
f 473/2/5 467/2/5 472/2/5
f 474/3/5 471/3/5 470/3/5
f 475/2/5 472/2/5 471/2/5
f 475/3/5 471/3/5 474/3/5
f 476/2/5 472/2/5 475/2/5
f 477/2/6 478/2/6 480/2/6
f 480/2/6 478/2/6 481/2/6
f 479/3/6 480/3/6 484/3/6
f 484/3/6 480/3/6 485/3/6
f 481/2/6 482/2/6 486/2/6
f 486/2/6 482/2/6 487/2/6
f 483/3/6 484/3/6 490/3/6
f 490/3/6 484/3/6 491/3/6
f 485/2/6 486/2/6 492/2/6
f 492/2/6 486/2/6 493/2/6
f 487/2/6 488/2/6 494/2/6
f 494/2/6 488/2/6 495/2/6
f 489/3/6 490/3/6 498/3/6
f 498/3/6 490/3/6 499/3/6
f 492/1/6 493/1/6 500/1/6
f 493/1/6 494/1/6 500/1/6
f 491/1/6 492/1/6 500/1/6
f 500/1/6 494/1/6 501/1/6
f 495/2/6 496/2/6 502/2/6
f 502/2/6 496/2/6 503/2/6
f 497/2/6 498/2/6 505/2/6
f 505/2/6 498/2/6 506/2/6
f 499/2/6 500/2/6 507/2/6
f 500/1/6 501/1/6 508/1/6
f 507/2/6 500/2/6 508/2/6
f 501/2/6 502/2/6 509/2/6
f 508/1/6 501/1/6 509/1/6
f 509/2/6 502/2/6 510/2/6
f 503/2/6 504/2/6 511/2/6
f 511/2/6 504/2/6 512/2/6
f 506/2/6 507/2/6 513/2/6
f 513/2/6 507/2/6 514/2/6
f 508/1/6 509/1/6 515/1/6
f 515/1/6 509/1/6 516/1/6
f 516/1/6 509/1/6 517/1/6
f 517/1/6 509/1/6 518/1/6
f 510/2/6 511/2/6 519/2/6
f 519/2/6 511/2/6 520/2/6
f 514/3/6 515/3/6 521/3/6
f 521/3/6 515/3/6 522/3/6
f 516/2/6 517/2/6 523/2/6
f 523/2/6 517/2/6 524/2/6
f 524/2/6 517/2/6 525/2/6
f 518/2/6 519/2/6 526/2/6
f 526/2/6 519/2/6 527/2/6
f 522/2/6 523/2/6 528/2/6
f 528/2/6 523/2/6 529/2/6
f 525/2/6 526/2/6 531/2/6
f 531/2/6 526/2/6 532/2/6
f 529/2/6 530/2/6 533/2/6
f 530/2/6 531/2/6 533/2/6
f 533/2/6 531/2/6 534/2/6
f 535/2/6 536/2/6 538/2/6
f 538/2/6 536/2/6 539/2/6
f 539/2/6 536/2/6 540/2/6
f 537/3/6 538/3/6 543/3/6
f 543/3/6 538/3/6 544/3/6
f 540/3/6 541/3/6 545/3/6
f 545/3/6 541/3/6 546/3/6
f 542/3/6 543/3/6 549/3/6
f 549/3/6 543/3/6 550/3/6
f 546/3/6 547/3/6 551/3/6
f 551/3/6 547/3/6 552/3/6
f 552/2/6 553/2/6 554/2/6
f 548/2/6 549/2/6 555/2/6
f 555/2/6 549/2/6 556/2/6
f 554/2/6 553/2/6 559/2/6
f 559/2/6 553/2/6 560/2/6
f 556/3/6 557/3/6 561/3/6
f 561/3/6 557/3/6 562/3/6
f 558/2/6 559/2/6 565/2/6
f 565/2/6 559/2/6 566/2/6
f 562/3/6 563/3/6 567/3/6
f 567/3/6 563/3/6 568/3/6
f 564/2/6 565/2/6 570/2/6
f 570/2/6 565/2/6 571/2/6
f 568/3/6 569/3/6 572/3/6
f 569/2/6 570/2/6 573/2/6
f 572/3/6 569/3/6 573/3/6
f 573/2/6 570/2/6 574/2/6
f 575/2/6 576/2/6 579/2/6
f 576/3/6 577/3/6 580/3/6
f 578/2/6 579/2/6 583/2/6
f 580/3/6 581/3/6 584/3/6
f 582/2/6 583/2/6 586/2/6
f 584/3/6 585/3/6 586/3/6
f 580/3/6 584/3/6 586/3/6
f 583/2/6 579/2/6 586/2/6
f 579/2/6 576/2/6 586/2/6
f 576/3/6 580/3/6 586/3/6
f 586/3/6 585/3/6 587/3/6
f 582/2/6 586/2/6 588/2/6
f 586/2/6 587/2/6 588/2/6
f 588/2/6 587/2/6 589/2/6
f 589/2/6 587/2/6 590/2/6
f 590/2/6 587/2/6 591/2/6
f 591/2/6 587/2/6 592/2/6
f 589/3/6 590/3/6 593/3/6
f 590/2/6 591/2/6 594/2/6
f 593/3/6 590/3/6 594/3/6
f 594/2/6 591/2/6 595/2/6
f 595/2/6 591/2/6 596/2/6
f 596/2/6 591/2/6 597/2/6
f 594/3/6 595/3/6 598/3/6
f 595/2/6 596/2/6 599/2/6
f 598/3/6 595/3/6 599/3/6
f 599/2/6 596/2/6 600/2/6
