# MagicaVoxel @ Ephtracy

# group
o 

# material
mtllib tlc_man.mtl
usemtl palette

# normals
vn -1 0 0
vn 1 0 0
vn 0 0 1
vn 0 0 -1
vn 0 -1 0
vn 0 1 0

# texcoords
vt 0.970703 0.5
vt 0.974609 0.5
vt 0.978516 0.5

# verts
v -0.2 0 0.2
v -0.2 0 0.1
v -0.2 0 -0.1
v -0.2 0 -0.2
v -0.2 0.1 0.2
v -0.2 0.1 0.1
v -0.2 0.1 -0.1
v -0.2 0.1 -0.2
v -0.2 0.2 0.2
v -0.2 0.2 -0.2
v -0.2 0.3 0.2
v -0.2 0.3 -0.2
v -0.2 0.4 0.1
v -0.2 0.4 -0.1
v -0.2 0.5 0.2
v -0.2 0.5 0.1
v -0.2 0.5 -0.1
v -0.2 0.5 -0.2
v -0.2 0.6 0.2
v -0.2 0.6 -0.2
v -0.2 0.9 0.2
v -0.2 0.9 -0.2
v -0.2 1 0.2
v -0.2 1 -0.2
v -0.1 0.2 0.3
v -0.1 0.2 0.2
v -0.1 0.2 -0.2
v -0.1 0.2 -0.3
v -0.1 0.3 0.3
v -0.1 0.3 0.2
v -0.1 0.3 -0.2
v -0.1 0.3 -0.3
v -0.1 0.5 0.1
v -0.1 0.5 -0.1
v -0.1 0.6 0.1
v -0.1 0.6 -0.1
v 0 0.1 0.2
v 0 0.1 0.1
v 0 0.1 -0.1
v 0 0.1 -0.2
v 0 0.2 0.2
v 0 0.2 0.1
v 0 0.2 -0.1
v 0 0.2 -0.2
v 0 0.3 0.3
v 0 0.3 0.2
v 0 0.3 -0.2
v 0 0.3 -0.3
v 0 0.5 0.3
v 0 0.5 0.2
v 0 0.5 -0.2
v 0 0.5 -0.3
v 0 0.6 0.1
v 0 0.6 0
v 0 0.7 0
v 0 0.8 0.1
v 0 0.8 0
v -0.1 0.6 0.1
v -0.1 0.6 0
v -0.1 0.7 0
v -0.1 0.8 0.1
v -0.1 0.8 0
v 0.1 0 0.2
v 0.1 0 0.1
v 0.1 0 -0.1
v 0.1 0 -0.2
v 0.1 0.1 0.2
v 0.1 0.1 0.1
v 0.1 0.1 -0.1
v 0.1 0.1 -0.2
v 0.1 0.2 0.3
v 0.1 0.2 0.2
v 0.1 0.2 0.1
v 0.1 0.2 -0.1
v 0.1 0.2 -0.2
v 0.1 0.2 -0.3
v 0.1 0.3 0.2
v 0.1 0.3 -0.2
v 0.1 0.5 0.3
v 0.1 0.5 0.2
v 0.1 0.5 0.1
v 0.1 0.5 -0.1
v 0.1 0.5 -0.2
v 0.1 0.5 -0.3
v 0.1 0.6 0.1
v 0.1 0.6 -0.1
v 0.2 0.2 0.2
v 0.2 0.2 -0.2
v 0.2 0.3 0.2
v 0.2 0.3 -0.2
v 0.2 0.5 0.2
v 0.2 0.5 -0.2
v 0.2 0.6 0.2
v 0.2 0.6 -0.2
v 0.2 1 0.2
v 0.2 1 -0.2
v -0.1 0.2 0.3
v -0.1 0.3 0.3
v 0 0.2 0.3
v 0 0.3 0.3
v 0 0.5 0.3
v 0.1 0.2 0.3
v 0.1 0.5 0.3
v -0.2 0 0.2
v -0.2 0.1 0.2
v -0.2 0.2 0.2
v -0.2 0.3 0.2
v -0.2 0.5 0.2
v -0.2 0.6 0.2
v -0.2 0.9 0.2
v -0.2 1 0.2
v -0.1 0.2 0.2
v -0.1 0.3 0.2
v -0.1 0.8 0.2
v -0.1 0.9 0.2
v 0 0.1 0.2
v 0 0.2 0.2
v 0 0.3 0.2
v 0 0.5 0.2
v 0 0.7 0.2
v 0 0.8 0.2
v 0.1 0 0.2
v 0.1 0.1 0.2
v 0.1 0.2 0.2
v 0.1 0.3 0.2
v 0.1 0.5 0.2
v 0.1 0.6 0.2
v 0.1 0.7 0.2
v 0.2 0.2 0.2
v 0.2 0.3 0.2
v 0.2 0.5 0.2
v 0.2 0.6 0.2
v 0.2 1 0.2
v -0.1 0.5 0.1
v -0.1 0.6 0.1
v 0.1 0.5 0.1
v 0.1 0.6 0.1
v -0.1 0.6 0
v -0.1 0.7 0
v -0.1 0.8 0
v 0 0.6 0
v 0 0.7 0
v 0 0.8 0
v -0.2 0 -0.1
v -0.2 0.1 -0.1
v 0 0.1 -0.1
v 0 0.2 -0.1
v 0.1 0 -0.1
v 0.1 0.1 -0.1
v 0.1 0.2 -0.1
v -0.2 0 0.1
v -0.2 0.1 0.1
v -0.1 0.6 0.1
v -0.1 0.8 0.1
v 0 0.1 0.1
v 0 0.2 0.1
v 0 0.6 0.1
v 0 0.8 0.1
v 0.1 0 0.1
v 0.1 0.1 0.1
v 0.1 0.2 0.1
v -0.1 0.5 -0.1
v -0.1 0.6 -0.1
v 0.1 0.5 -0.1
v 0.1 0.6 -0.1
v -0.2 0 -0.2
v -0.2 0.1 -0.2
v -0.2 0.2 -0.2
v -0.2 0.3 -0.2
v -0.2 0.5 -0.2
v -0.2 0.6 -0.2
v -0.2 0.9 -0.2
v -0.2 1 -0.2
v -0.1 0.2 -0.2
v -0.1 0.3 -0.2
v -0.1 0.8 -0.2
v -0.1 0.9 -0.2
v 0 0.1 -0.2
v 0 0.2 -0.2
v 0 0.3 -0.2
v 0 0.5 -0.2
v 0 0.7 -0.2
v 0 0.8 -0.2
v 0.1 0 -0.2
v 0.1 0.1 -0.2
v 0.1 0.2 -0.2
v 0.1 0.3 -0.2
v 0.1 0.5 -0.2
v 0.1 0.6 -0.2
v 0.1 0.7 -0.2
v 0.2 0.2 -0.2
v 0.2 0.3 -0.2
v 0.2 0.5 -0.2
v 0.2 0.6 -0.2
v 0.2 1 -0.2
v -0.1 0.2 -0.3
v -0.1 0.3 -0.3
v 0 0.2 -0.3
v 0 0.3 -0.3
v 0 0.5 -0.3
v 0.1 0.2 -0.3
v 0.1 0.5 -0.3
v -0.2 0 0.2
v 0.1 0 0.2
v -0.2 0 0.1
v 0.1 0 0.1
v -0.2 0 -0.1
v 0.1 0 -0.1
v -0.2 0 -0.2
v 0.1 0 -0.2
v -0.1 0.2 0.3
v 0 0.2 0.3
v 0.1 0.2 0.3
v -0.2 0.2 0.2
v -0.1 0.2 0.2
v 0 0.2 0.2
v 0.1 0.2 0.2
v 0.2 0.2 0.2
v 0 0.2 0.1
v 0.1 0.2 0.1
v 0 0.2 -0.1
v 0.1 0.2 -0.1
v -0.2 0.2 -0.2
v -0.1 0.2 -0.2
v 0 0.2 -0.2
v 0.1 0.2 -0.2
v 0.2 0.2 -0.2
v -0.1 0.2 -0.3
v 0 0.2 -0.3
v 0.1 0.2 -0.3
v -0.2 0.6 0.2
v 0.1 0.6 0.2
v 0.2 0.6 0.2
v -0.1 0.6 0.1
v 0.1 0.6 0.1
v -0.1 0.6 -0.1
v 0.1 0.6 -0.1
v -0.2 0.6 -0.2
v 0.1 0.6 -0.2
v 0.2 0.6 -0.2
v -0.1 0.8 0.1
v 0 0.8 0.1
v -0.1 0.8 0
v 0 0.8 0
v -0.2 0.1 0.2
v 0 0.1 0.2
v -0.2 0.1 0.1
v 0 0.1 0.1
v -0.2 0.1 -0.1
v 0 0.1 -0.1
v -0.2 0.1 -0.2
v 0 0.1 -0.2
v -0.1 0.3 0.3
v 0 0.3 0.3
v -0.1 0.3 0.2
v 0 0.3 0.2
v -0.1 0.3 -0.2
v 0 0.3 -0.2
v -0.1 0.3 -0.3
v 0 0.3 -0.3
v 0 0.5 0.3
v 0.1 0.5 0.3
v -0.2 0.5 0.2
v 0 0.5 0.2
v 0.1 0.5 0.2
v 0.2 0.5 0.2
v -0.2 0.5 0.1
v -0.1 0.5 0.1
v 0.1 0.5 0.1
v -0.2 0.5 -0.1
v -0.1 0.5 -0.1
v 0.1 0.5 -0.1
v -0.2 0.5 -0.2
v 0 0.5 -0.2
v 0.1 0.5 -0.2
v 0.2 0.5 -0.2
v 0 0.5 -0.3
v 0.1 0.5 -0.3
v -0.1 0.6 0.1
v 0 0.6 0.1
v -0.1 0.6 0
v 0 0.6 0
v -0.2 1 0.2
v 0.2 1 0.2
v -0.2 1 -0.2
v 0.2 1 -0.2

# faces
f 5/2/1 2/2/1 1/2/1
f 6/2/1 2/2/1 5/2/1
f 7/2/1 4/2/1 3/2/1
f 8/2/1 4/2/1 7/2/1
f 11/3/1 10/3/1 9/3/1
f 12/3/1 10/3/1 11/3/1
f 13/2/1 12/2/1 11/2/1
f 14/2/1 12/2/1 13/2/1
f 15/2/1 13/2/1 11/2/1
f 16/1/1 14/1/1 13/1/1
f 16/2/1 13/2/1 15/2/1
f 17/2/1 12/2/1 14/2/1
f 17/1/1 14/1/1 16/1/1
f 18/2/1 12/2/1 17/2/1
f 21/1/1 20/1/1 19/1/1
f 22/1/1 20/1/1 21/1/1
f 23/2/1 22/2/1 21/2/1
f 24/2/1 22/2/1 23/2/1
f 29/1/1 26/1/1 25/1/1
f 30/1/1 26/1/1 29/1/1
f 31/1/1 28/1/1 27/1/1
f 32/1/1 28/1/1 31/1/1
f 35/1/1 34/1/1 33/1/1
f 36/1/1 34/1/1 35/1/1
f 41/3/1 38/3/1 37/3/1
f 42/3/1 38/3/1 41/3/1
f 43/3/1 40/3/1 39/3/1
f 44/3/1 40/3/1 43/3/1
f 49/2/1 46/2/1 45/2/1
f 50/2/1 46/2/1 49/2/1
f 51/2/1 48/2/1 47/2/1
f 52/2/1 48/2/1 51/2/1
f 55/2/1 54/2/1 53/2/1
f 56/2/1 55/2/1 53/2/1
f 57/2/1 55/2/1 56/2/1
f 58/1/2 59/1/2 60/1/2
f 58/1/2 60/1/2 61/1/2
f 61/1/2 60/1/2 62/1/2
f 63/2/2 64/2/2 67/2/2
f 67/2/2 64/2/2 68/2/2
f 65/2/2 66/2/2 69/2/2
f 69/2/2 66/2/2 70/2/2
f 67/3/2 68/3/2 72/3/2
f 72/3/2 68/3/2 73/3/2
f 69/3/2 70/3/2 74/3/2
f 74/3/2 70/3/2 75/3/2
f 71/2/2 72/2/2 77/2/2
f 75/2/2 76/2/2 78/2/2
f 71/2/2 77/2/2 79/2/2
f 79/2/2 77/2/2 80/2/2
f 78/2/2 76/2/2 83/2/2
f 83/2/2 76/2/2 84/2/2
f 81/1/2 82/1/2 85/1/2
f 85/1/2 82/1/2 86/1/2
f 87/3/2 88/3/2 89/3/2
f 89/3/2 88/3/2 90/3/2
f 89/2/2 90/2/2 91/2/2
f 91/2/2 90/2/2 92/2/2
f 93/2/2 94/2/2 95/2/2
f 95/2/2 94/2/2 96/2/2
f 99/1/3 98/1/3 97/1/3
f 100/1/3 98/1/3 99/1/3
f 102/2/3 100/2/3 99/2/3
f 102/2/3 101/2/3 100/2/3
f 103/2/3 101/2/3 102/2/3
f 112/3/3 107/3/3 106/3/3
f 113/2/3 108/2/3 107/2/3
f 113/3/3 107/3/3 112/3/3
f 114/1/3 110/1/3 109/1/3
f 115/2/3 111/2/3 110/2/3
f 115/1/3 110/1/3 114/1/3
f 116/2/3 105/2/3 104/2/3
f 118/2/3 108/2/3 113/2/3
f 119/2/3 108/2/3 118/2/3
f 120/1/3 114/1/3 109/1/3
f 121/2/3 115/2/3 114/2/3
f 121/1/3 114/1/3 120/1/3
f 122/2/3 116/2/3 104/2/3
f 123/3/3 117/3/3 116/3/3
f 123/2/3 116/2/3 122/2/3
f 124/3/3 117/3/3 123/3/3
f 127/1/3 120/1/3 109/1/3
f 128/2/3 121/2/3 120/2/3
f 128/1/3 120/1/3 127/1/3
f 129/3/3 125/3/3 124/3/3
f 130/2/3 126/2/3 125/2/3
f 130/3/3 125/3/3 129/3/3
f 131/2/3 126/2/3 130/2/3
f 132/2/3 128/2/3 127/2/3
f 133/2/3 111/2/3 115/2/3
f 133/2/3 128/2/3 132/2/3
f 133/2/3 115/2/3 121/2/3
f 133/2/3 121/2/3 128/2/3
f 136/1/3 135/1/3 134/1/3
f 137/1/3 135/1/3 136/1/3
f 141/1/3 139/1/3 138/1/3
f 142/2/3 140/2/3 139/2/3
f 142/1/3 139/1/3 141/1/3
f 143/2/3 140/2/3 142/2/3
f 146/2/3 145/2/3 144/2/3
f 148/2/3 146/2/3 144/2/3
f 149/3/3 147/3/3 146/3/3
f 149/2/3 146/2/3 148/2/3
f 150/3/3 147/3/3 149/3/3
f 151/2/4 152/2/4 155/2/4
f 153/1/4 154/1/4 157/1/4
f 157/1/4 154/1/4 158/1/4
f 151/2/4 155/2/4 159/2/4
f 155/3/4 156/3/4 160/3/4
f 159/2/4 155/2/4 160/2/4
f 160/3/4 156/3/4 161/3/4
f 162/1/4 163/1/4 164/1/4
f 164/1/4 163/1/4 165/1/4
f 168/3/4 169/3/4 174/3/4
f 169/2/4 170/2/4 175/2/4
f 174/3/4 169/3/4 175/3/4
f 171/1/4 172/1/4 176/1/4
f 172/2/4 173/2/4 177/2/4
f 176/1/4 172/1/4 177/1/4
f 166/2/4 167/2/4 178/2/4
f 175/2/4 170/2/4 180/2/4
f 180/2/4 170/2/4 181/2/4
f 171/1/4 176/1/4 182/1/4
f 176/2/4 177/2/4 183/2/4
f 182/1/4 176/1/4 183/1/4
f 166/2/4 178/2/4 184/2/4
f 178/3/4 179/3/4 185/3/4
f 184/2/4 178/2/4 185/2/4
f 185/3/4 179/3/4 186/3/4
f 171/1/4 182/1/4 189/1/4
f 182/2/4 183/2/4 190/2/4
f 189/1/4 182/1/4 190/1/4
f 186/3/4 187/3/4 191/3/4
f 187/2/4 188/2/4 192/2/4
f 191/3/4 187/3/4 192/3/4
f 192/2/4 188/2/4 193/2/4
f 189/2/4 190/2/4 194/2/4
f 177/2/4 173/2/4 195/2/4
f 194/2/4 190/2/4 195/2/4
f 183/2/4 177/2/4 195/2/4
f 190/2/4 183/2/4 195/2/4
f 196/1/4 197/1/4 198/1/4
f 198/1/4 197/1/4 199/1/4
f 198/2/4 199/2/4 201/2/4
f 199/2/4 200/2/4 201/2/4
f 201/2/4 200/2/4 202/2/4
f 205/2/5 204/2/5 203/2/5
f 206/2/5 204/2/5 205/2/5
f 209/2/5 208/2/5 207/2/5
f 210/2/5 208/2/5 209/2/5
f 215/1/5 212/1/5 211/1/5
f 216/2/5 213/2/5 212/2/5
f 216/1/5 212/1/5 215/1/5
f 217/2/5 213/2/5 216/2/5
f 219/3/5 215/3/5 214/3/5
f 219/3/5 216/3/5 215/3/5
f 220/3/5 218/3/5 217/3/5
f 221/3/5 219/3/5 214/3/5
f 221/3/5 220/3/5 219/3/5
f 222/3/5 218/3/5 220/3/5
f 222/3/5 220/3/5 221/3/5
f 223/3/5 221/3/5 214/3/5
f 224/3/5 221/3/5 223/3/5
f 225/3/5 221/3/5 224/3/5
f 226/3/5 218/3/5 222/3/5
f 227/3/5 218/3/5 226/3/5
f 228/1/5 225/1/5 224/1/5
f 229/2/5 226/2/5 225/2/5
f 229/1/5 225/1/5 228/1/5
f 230/2/5 226/2/5 229/2/5
f 234/1/5 232/1/5 231/1/5
f 235/2/5 233/2/5 232/2/5
f 235/1/5 232/1/5 234/1/5
f 236/1/5 234/1/5 231/1/5
f 237/2/5 233/2/5 235/2/5
f 238/1/5 236/1/5 231/1/5
f 238/1/5 237/1/5 236/1/5
f 239/2/5 233/2/5 237/2/5
f 239/1/5 237/1/5 238/1/5
f 240/2/5 233/2/5 239/2/5
f 243/2/5 242/2/5 241/2/5
f 244/2/5 242/2/5 243/2/5
f 245/2/6 246/2/6 247/2/6
f 247/2/6 246/2/6 248/2/6
f 249/2/6 250/2/6 251/2/6
f 251/2/6 250/2/6 252/2/6
f 253/1/6 254/1/6 255/1/6
f 255/1/6 254/1/6 256/1/6
f 257/1/6 258/1/6 259/1/6
f 259/1/6 258/1/6 260/1/6
f 261/2/6 262/2/6 264/2/6
f 264/2/6 262/2/6 265/2/6
f 263/2/6 264/2/6 267/2/6
f 265/2/6 266/2/6 267/2/6
f 264/2/6 265/2/6 267/2/6
f 267/2/6 266/2/6 268/2/6
f 268/2/6 266/2/6 269/2/6
f 267/1/6 268/1/6 270/1/6
f 270/1/6 268/1/6 271/1/6
f 269/2/6 266/2/6 272/2/6
f 270/2/6 271/2/6 273/2/6
f 271/2/6 272/2/6 273/2/6
f 273/2/6 272/2/6 274/2/6
f 272/2/6 266/2/6 275/2/6
f 274/2/6 272/2/6 275/2/6
f 275/2/6 266/2/6 276/2/6
f 274/2/6 275/2/6 277/2/6
f 277/2/6 275/2/6 278/2/6
f 279/1/6 280/1/6 281/1/6
f 281/1/6 280/1/6 282/1/6
f 283/2/6 284/2/6 285/2/6
f 285/2/6 284/2/6 286/2/6
