# MagicaVoxel @ Ephtracy

# group
o 

# material
mtllib smthng.mtl
usemtl palette

# normals
vn -1 0 0
vn 1 0 0
vn 0 0 1
vn 0 0 -1
vn 0 -1 0
vn 0 1 0

# texcoords
vt 0.970703 0.5
vt 0.974609 0.5
vt 0.978516 0.5

# verts
v -0.3 0 0.3
v -0.3 0 -0.1
v -0.3 0 -0.2
v -0.3 0.1 0.2
v -0.3 0.1 -0.1
v -0.3 0.2 0.3
v -0.3 0.2 0.2
v -0.3 0.8 -0.1
v -0.3 0.8 -0.2
v -0.2 0 -0.2
v -0.2 0 -0.3
v -0.2 0.3 0
v -0.2 0.3 -0.1
v -0.2 0.4 -0.2
v -0.2 0.4 -0.3
v -0.2 0.7 0
v -0.2 0.7 -0.1
v -0.2 0.8 -0.1
v -0.2 0.8 -0.2
v -0.2 0.9 -0.1
v -0.2 0.9 -0.2
v -0.1 0 0.1
v -0.1 0 -0.1
v -0.1 0 -0.3
v -0.1 0 -0.4
v -0.1 0.2 0.1
v -0.1 0.2 -0.1
v -0.1 0.4 -0.2
v -0.1 0.4 -0.3
v -0.1 0.4 -0.4
v -0.1 0.7 -0.2
v -0.1 0.7 -0.3
v 0.1 0.3 0
v 0.1 0.3 -0.1
v 0.1 0.7 0
v 0.1 0.7 -0.1
v 0.2 0 0.3
v 0.2 0 -0.1
v 0.2 0.1 0.2
v 0.2 0.1 -0.1
v 0.2 0.2 0.3
v 0.2 0.2 0.2
v -0.2 0 0.3
v -0.2 0 -0.1
v -0.2 0.1 0.2
v -0.2 0.1 -0.1
v -0.2 0.2 0.3
v -0.2 0.2 0.2
v -0.1 0.3 0
v -0.1 0.3 -0.1
v -0.1 0.7 0
v -0.1 0.7 -0.1
v 0.1 0 0.1
v 0.1 0 -0.1
v 0.1 0 -0.3
v 0.1 0 -0.4
v 0.1 0.2 0.1
v 0.1 0.2 -0.1
v 0.1 0.4 -0.2
v 0.1 0.4 -0.3
v 0.1 0.4 -0.4
v 0.1 0.7 -0.2
v 0.1 0.7 -0.3
v 0.2 0 -0.2
v 0.2 0 -0.3
v 0.2 0.3 0
v 0.2 0.3 -0.1
v 0.2 0.4 -0.2
v 0.2 0.4 -0.3
v 0.2 0.7 0
v 0.2 0.7 -0.1
v 0.2 0.8 -0.1
v 0.2 0.8 -0.2
v 0.2 0.9 -0.1
v 0.2 0.9 -0.2
v 0.3 0 0.3
v 0.3 0 -0.1
v 0.3 0 -0.2
v 0.3 0.1 0.2
v 0.3 0.1 -0.1
v 0.3 0.2 0.3
v 0.3 0.2 0.2
v 0.3 0.8 -0.1
v 0.3 0.8 -0.2
v -0.3 0 0.3
v -0.3 0.2 0.3
v -0.2 0 0.3
v -0.2 0.2 0.3
v 0.2 0 0.3
v 0.2 0.2 0.3
v 0.3 0 0.3
v 0.3 0.2 0.3
v -0.1 0 0.1
v -0.1 0.2 0.1
v 0.1 0 0.1
v 0.1 0.2 0.1
v -0.2 0.3 0
v -0.2 0.7 0
v -0.1 0.3 0
v -0.1 0.7 0
v 0.1 0.3 0
v 0.1 0.7 0
v 0.2 0.3 0
v 0.2 0.7 0
v -0.3 0.1 -0.1
v -0.3 0.8 -0.1
v -0.2 0 -0.1
v -0.2 0.1 -0.1
v -0.2 0.3 -0.1
v -0.2 0.7 -0.1
v -0.2 0.8 -0.1
v -0.2 0.9 -0.1
v -0.1 0 -0.1
v -0.1 0.2 -0.1
v -0.1 0.3 -0.1
v -0.1 0.7 -0.1
v 0.1 0 -0.1
v 0.1 0.2 -0.1
v 0.1 0.3 -0.1
v 0.1 0.7 -0.1
v 0.2 0 -0.1
v 0.2 0.1 -0.1
v 0.2 0.3 -0.1
v 0.2 0.7 -0.1
v 0.2 0.8 -0.1
v 0.2 0.9 -0.1
v 0.3 0.1 -0.1
v 0.3 0.8 -0.1
v -0.3 0.1 0.2
v -0.3 0.2 0.2
v -0.2 0.1 0.2
v -0.2 0.2 0.2
v 0.2 0.1 0.2
v 0.2 0.2 0.2
v 0.3 0.1 0.2
v 0.3 0.2 0.2
v -0.3 0 -0.2
v -0.3 0.8 -0.2
v -0.2 0 -0.2
v -0.2 0.4 -0.2
v -0.2 0.8 -0.2
v -0.2 0.9 -0.2
v -0.1 0.4 -0.2
v -0.1 0.7 -0.2
v 0.1 0.4 -0.2
v 0.1 0.7 -0.2
v 0.2 0 -0.2
v 0.2 0.4 -0.2
v 0.2 0.8 -0.2
v 0.2 0.9 -0.2
v 0.3 0 -0.2
v 0.3 0.8 -0.2
v -0.2 0 -0.3
v -0.2 0.4 -0.3
v -0.1 0 -0.3
v -0.1 0.4 -0.3
v -0.1 0.7 -0.3
v 0.1 0 -0.3
v 0.1 0.4 -0.3
v 0.1 0.7 -0.3
v 0.2 0 -0.3
v 0.2 0.4 -0.3
v -0.1 0 -0.4
v -0.1 0.4 -0.4
v 0.1 0 -0.4
v 0.1 0.4 -0.4
v -0.3 0 0.3
v -0.2 0 0.3
v 0.2 0 0.3
v 0.3 0 0.3
v -0.1 0 0.1
v 0.1 0 0.1
v -0.3 0 -0.1
v -0.2 0 -0.1
v -0.1 0 -0.1
v 0.1 0 -0.1
v 0.2 0 -0.1
v 0.3 0 -0.1
v -0.3 0 -0.2
v -0.2 0 -0.2
v 0.2 0 -0.2
v 0.3 0 -0.2
v -0.2 0 -0.3
v -0.1 0 -0.3
v 0.1 0 -0.3
v 0.2 0 -0.3
v -0.1 0 -0.4
v 0.1 0 -0.4
v -0.2 0.3 0
v -0.1 0.3 0
v 0.1 0.3 0
v 0.2 0.3 0
v -0.2 0.3 -0.1
v -0.1 0.3 -0.1
v 0.1 0.3 -0.1
v 0.2 0.3 -0.1
v -0.3 0.1 0.2
v -0.2 0.1 0.2
v 0.2 0.1 0.2
v 0.3 0.1 0.2
v -0.3 0.1 -0.1
v -0.2 0.1 -0.1
v 0.2 0.1 -0.1
v 0.3 0.1 -0.1
v -0.3 0.2 0.3
v -0.2 0.2 0.3
v 0.2 0.2 0.3
v 0.3 0.2 0.3
v -0.3 0.2 0.2
v -0.2 0.2 0.2
v 0.2 0.2 0.2
v 0.3 0.2 0.2
v -0.1 0.2 0.1
v 0.1 0.2 0.1
v -0.1 0.2 -0.1
v 0.1 0.2 -0.1
v -0.2 0.4 -0.2
v -0.1 0.4 -0.2
v 0.1 0.4 -0.2
v 0.2 0.4 -0.2
v -0.2 0.4 -0.3
v -0.1 0.4 -0.3
v 0.1 0.4 -0.3
v 0.2 0.4 -0.3
v -0.1 0.4 -0.4
v 0.1 0.4 -0.4
v -0.2 0.7 0
v -0.1 0.7 0
v 0.1 0.7 0
v 0.2 0.7 0
v -0.2 0.7 -0.1
v -0.1 0.7 -0.1
v 0.1 0.7 -0.1
v 0.2 0.7 -0.1
v -0.1 0.7 -0.2
v 0.1 0.7 -0.2
v -0.1 0.7 -0.3
v 0.1 0.7 -0.3
v -0.3 0.8 -0.1
v -0.2 0.8 -0.1
v 0.2 0.8 -0.1
v 0.3 0.8 -0.1
v -0.3 0.8 -0.2
v -0.2 0.8 -0.2
v 0.2 0.8 -0.2
v 0.3 0.8 -0.2
v -0.2 0.9 -0.1
v 0.2 0.9 -0.1
v -0.2 0.9 -0.2
v 0.2 0.9 -0.2

# faces
f 4/2/1 2/2/1 1/2/1
f 5/3/1 3/3/1 2/3/1
f 5/2/1 2/2/1 4/2/1
f 6/2/1 4/2/1 1/2/1
f 7/2/1 4/2/1 6/2/1
f 8/3/1 3/3/1 5/3/1
f 9/3/1 3/3/1 8/3/1
f 14/3/1 11/3/1 10/3/1
f 15/3/1 11/3/1 14/3/1
f 16/1/1 13/1/1 12/1/1
f 17/1/1 13/1/1 16/1/1
f 20/3/1 19/3/1 18/3/1
f 21/3/1 19/3/1 20/3/1
f 26/3/1 23/3/1 22/3/1
f 27/3/1 23/3/1 26/3/1
f 29/3/1 25/3/1 24/3/1
f 30/3/1 25/3/1 29/3/1
f 31/3/1 29/3/1 28/3/1
f 32/3/1 29/3/1 31/3/1
f 35/1/1 34/1/1 33/1/1
f 36/1/1 34/1/1 35/1/1
f 39/2/1 38/2/1 37/2/1
f 40/2/1 38/2/1 39/2/1
f 41/2/1 39/2/1 37/2/1
f 42/2/1 39/2/1 41/2/1
f 43/2/2 44/2/2 45/2/2
f 45/2/2 44/2/2 46/2/2
f 43/2/2 45/2/2 47/2/2
f 47/2/2 45/2/2 48/2/2
f 49/1/2 50/1/2 51/1/2
f 51/1/2 50/1/2 52/1/2
f 53/3/2 54/3/2 57/3/2
f 57/3/2 54/3/2 58/3/2
f 55/3/2 56/3/2 60/3/2
f 60/3/2 56/3/2 61/3/2
f 59/3/2 60/3/2 62/3/2
f 62/3/2 60/3/2 63/3/2
f 64/3/2 65/3/2 68/3/2
f 68/3/2 65/3/2 69/3/2
f 66/1/2 67/1/2 70/1/2
f 70/1/2 67/1/2 71/1/2
f 72/3/2 73/3/2 74/3/2
f 74/3/2 73/3/2 75/3/2
f 76/2/2 77/2/2 79/2/2
f 77/3/2 78/3/2 80/3/2
f 79/2/2 77/2/2 80/2/2
f 76/2/2 79/2/2 81/2/2
f 81/2/2 79/2/2 82/2/2
f 80/3/2 78/3/2 83/3/2
f 83/3/2 78/3/2 84/3/2
f 87/2/3 86/2/3 85/2/3
f 88/2/3 86/2/3 87/2/3
f 91/2/3 90/2/3 89/2/3
f 92/2/3 90/2/3 91/2/3
f 95/3/3 94/3/3 93/3/3
f 96/3/3 94/3/3 95/3/3
f 99/1/3 98/1/3 97/1/3
f 100/1/3 98/1/3 99/1/3
f 103/1/3 102/1/3 101/1/3
f 104/1/3 102/1/3 103/1/3
f 108/3/3 106/3/3 105/3/3
f 109/3/3 106/3/3 108/3/3
f 110/3/3 106/3/3 109/3/3
f 111/3/3 106/3/3 110/3/3
f 113/3/3 108/3/3 107/3/3
f 113/3/3 109/3/3 108/3/3
f 114/3/3 109/3/3 113/3/3
f 115/3/3 109/3/3 114/3/3
f 116/3/3 112/3/3 111/3/3
f 116/3/3 111/3/3 110/3/3
f 118/3/3 115/3/3 114/3/3
f 118/3/3 116/3/3 115/3/3
f 119/3/3 116/3/3 118/3/3
f 120/3/3 112/3/3 116/3/3
f 120/3/3 116/3/3 119/3/3
f 121/3/3 119/3/3 118/3/3
f 121/3/3 118/3/3 117/3/3
f 122/3/3 119/3/3 121/3/3
f 123/3/3 119/3/3 122/3/3
f 124/3/3 112/3/3 120/3/3
f 125/3/3 112/3/3 124/3/3
f 126/3/3 112/3/3 125/3/3
f 127/3/3 123/3/3 122/3/3
f 127/3/3 125/3/3 124/3/3
f 127/3/3 124/3/3 123/3/3
f 128/3/3 125/3/3 127/3/3
f 129/2/4 130/2/4 131/2/4
f 131/2/4 130/2/4 132/2/4
f 133/2/4 134/2/4 135/2/4
f 135/2/4 134/2/4 136/2/4
f 137/3/4 138/3/4 139/3/4
f 139/3/4 138/3/4 140/3/4
f 140/3/4 138/3/4 141/3/4
f 141/3/4 142/3/4 143/3/4
f 140/3/4 141/3/4 143/3/4
f 143/3/4 142/3/4 144/3/4
f 144/3/4 142/3/4 146/3/4
f 145/3/4 146/3/4 148/3/4
f 146/3/4 142/3/4 149/3/4
f 148/3/4 146/3/4 149/3/4
f 149/3/4 142/3/4 150/3/4
f 147/3/4 148/3/4 151/3/4
f 148/3/4 149/3/4 151/3/4
f 151/3/4 149/3/4 152/3/4
f 153/3/4 154/3/4 155/3/4
f 155/3/4 154/3/4 156/3/4
f 156/3/4 157/3/4 159/3/4
f 159/3/4 157/3/4 160/3/4
f 158/3/4 159/3/4 161/3/4
f 161/3/4 159/3/4 162/3/4
f 163/3/4 164/3/4 165/3/4
f 165/3/4 164/3/4 166/3/4
f 173/2/5 168/2/5 167/2/5
f 174/2/5 168/2/5 173/2/5
f 175/3/5 172/3/5 171/3/5
f 176/3/5 172/3/5 175/3/5
f 177/2/5 170/2/5 169/2/5
f 178/2/5 170/2/5 177/2/5
f 179/3/5 174/3/5 173/3/5
f 179/3/5 176/3/5 175/3/5
f 179/3/5 178/3/5 177/3/5
f 179/3/5 177/3/5 176/3/5
f 179/3/5 175/3/5 174/3/5
f 180/3/5 178/3/5 179/3/5
f 181/3/5 178/3/5 180/3/5
f 182/3/5 178/3/5 181/3/5
f 183/3/5 181/3/5 180/3/5
f 184/3/5 181/3/5 183/3/5
f 185/3/5 181/3/5 184/3/5
f 186/3/5 181/3/5 185/3/5
f 187/3/5 185/3/5 184/3/5
f 188/3/5 185/3/5 187/3/5
f 193/1/5 190/1/5 189/1/5
f 194/1/5 190/1/5 193/1/5
f 195/1/5 192/1/5 191/1/5
f 196/1/5 192/1/5 195/1/5
f 197/2/6 198/2/6 201/2/6
f 201/2/6 198/2/6 202/2/6
f 199/2/6 200/2/6 203/2/6
f 203/2/6 200/2/6 204/2/6
f 205/2/6 206/2/6 209/2/6
f 209/2/6 206/2/6 210/2/6
f 207/2/6 208/2/6 211/2/6
f 211/2/6 208/2/6 212/2/6
f 213/3/6 214/3/6 215/3/6
f 215/3/6 214/3/6 216/3/6
f 217/3/6 218/3/6 221/3/6
f 221/3/6 218/3/6 222/3/6
f 219/3/6 220/3/6 223/3/6
f 223/3/6 220/3/6 224/3/6
f 222/3/6 223/3/6 225/3/6
f 225/3/6 223/3/6 226/3/6
f 227/1/6 228/1/6 231/1/6
f 231/1/6 228/1/6 232/1/6
f 229/1/6 230/1/6 233/1/6
f 233/1/6 230/1/6 234/1/6
f 235/3/6 236/3/6 237/3/6
f 237/3/6 236/3/6 238/3/6
f 239/3/6 240/3/6 243/3/6
f 243/3/6 240/3/6 244/3/6
f 241/3/6 242/3/6 245/3/6
f 245/3/6 242/3/6 246/3/6
f 247/3/6 248/3/6 249/3/6
f 249/3/6 248/3/6 250/3/6
