# MagicaVoxel @ Ephtracy

# group
o 

# material
mtllib leftRotator.mtl
usemtl palette

# normals
vn -1 0 0
vn 1 0 0
vn 0 0 1
vn 0 0 -1
vn 0 -1 0
vn 0 1 0

# texcoords
vt 0.970703 0.5
vt 0.974609 0.5
vt 0.978516 0.5

# verts
v -0.4 0 0.4
v -0.4 0 0.3
v -0.4 0 -0.4
v -0.4 0.1 0.3
v -0.4 0.1 0.2
v -0.4 0.1 -0.2
v -0.4 0.2 0.3
v -0.4 0.2 0.2
v -0.4 0.2 -0.2
v -0.4 0.2 -0.3
v -0.4 0.3 0.4
v -0.4 0.3 0.3
v -0.4 0.3 -0.3
v -0.4 0.3 -0.4
v -0.4 0.7 0.4
v -0.4 0.7 0.3
v -0.4 0.7 -0.3
v -0.4 0.7 -0.4
v -0.4 0.8 0.3
v -0.4 0.8 0.2
v -0.4 0.8 -0.2
v -0.4 0.8 -0.3
v -0.4 0.9 0.3
v -0.4 0.9 0.2
v -0.4 0.9 -0.2
v -0.4 1 0.4
v -0.4 1 0.3
v -0.4 1 -0.4
v -0.3 0.1 0.2
v -0.3 0.1 -0.2
v -0.3 0.2 0.3
v -0.3 0.2 0.2
v -0.3 0.2 -0.2
v -0.3 0.2 -0.3
v -0.3 0.3 0.3
v -0.3 0.3 -0.3
v -0.3 0.4 0.1
v -0.3 0.4 -0.1
v -0.3 0.6 0.1
v -0.3 0.6 -0.1
v -0.3 0.7 0.3
v -0.3 0.7 -0.3
v -0.3 0.8 0.3
v -0.3 0.8 0.2
v -0.3 0.8 -0.2
v -0.3 0.8 -0.3
v -0.3 0.9 0.2
v -0.3 0.9 -0.2
v -0.2 0.4 0.1
v -0.2 0.4 -0.1
v -0.2 0.6 0.1
v -0.2 0.6 -0.1
v 0.2 0.1 0.4
v 0.2 0.1 0.3
v 0.2 0.1 -0.3
v 0.2 0.1 -0.4
v 0.2 0.2 0.4
v 0.2 0.2 0.3
v 0.2 0.2 -0.3
v 0.2 0.2 -0.4
v 0.2 0.8 0.4
v 0.2 0.8 0.3
v 0.2 0.8 -0.3
v 0.2 0.8 -0.4
v 0.2 0.9 0.4
v 0.2 0.9 0.3
v 0.2 0.9 -0.3
v 0.2 0.9 -0.4
v 0.3 0.2 0.4
v 0.3 0.2 0.3
v 0.3 0.2 -0.3
v 0.3 0.2 -0.4
v 0.3 0.3 0.4
v 0.3 0.3 0.3
v 0.3 0.3 -0.3
v 0.3 0.3 -0.4
v 0.3 0.7 0.4
v 0.3 0.7 0.3
v 0.3 0.7 -0.3
v 0.3 0.7 -0.4
v 0.3 0.8 0.4
v 0.3 0.8 0.3
v 0.3 0.8 -0.3
v 0.3 0.8 -0.4
v -0.3 0.2 0.4
v -0.3 0.2 0.3
v -0.3 0.2 -0.3
v -0.3 0.2 -0.4
v -0.3 0.3 0.4
v -0.3 0.3 0.3
v -0.3 0.3 -0.3
v -0.3 0.3 -0.4
v -0.3 0.7 0.4
v -0.3 0.7 0.3
v -0.3 0.7 -0.3
v -0.3 0.7 -0.4
v -0.3 0.8 0.4
v -0.3 0.8 0.3
v -0.3 0.8 -0.3
v -0.3 0.8 -0.4
v -0.2 0.1 0.4
v -0.2 0.1 0.3
v -0.2 0.1 -0.3
v -0.2 0.1 -0.4
v -0.2 0.2 0.4
v -0.2 0.2 0.3
v -0.2 0.2 -0.3
v -0.2 0.2 -0.4
v -0.2 0.8 0.4
v -0.2 0.8 0.3
v -0.2 0.8 -0.3
v -0.2 0.8 -0.4
v -0.2 0.9 0.4
v -0.2 0.9 0.3
v -0.2 0.9 -0.3
v -0.2 0.9 -0.4
v 0.3 0.1 0.2
v 0.3 0.1 -0.2
v 0.3 0.2 0.3
v 0.3 0.2 0.2
v 0.3 0.2 0.1
v 0.3 0.2 -0.1
v 0.3 0.2 -0.2
v 0.3 0.2 -0.3
v 0.3 0.3 0.3
v 0.3 0.3 0.2
v 0.3 0.3 0.1
v 0.3 0.3 -0.1
v 0.3 0.3 -0.2
v 0.3 0.3 -0.3
v 0.3 0.4 0.2
v 0.3 0.4 0.1
v 0.3 0.4 -0.1
v 0.3 0.4 -0.2
v 0.3 0.5 0.2
v 0.3 0.5 0.1
v 0.3 0.5 -0.1
v 0.3 0.5 -0.2
v 0.3 0.6 0.2
v 0.3 0.6 0.1
v 0.3 0.6 -0.1
v 0.3 0.6 -0.2
v 0.3 0.7 0.3
v 0.3 0.7 0.2
v 0.3 0.7 0.1
v 0.3 0.7 -0.1
v 0.3 0.7 -0.2
v 0.3 0.7 -0.3
v 0.3 0.8 0.3
v 0.3 0.8 0.2
v 0.3 0.8 -0.2
v 0.3 0.8 -0.3
v 0.3 0.9 0.2
v 0.3 0.9 -0.2
v 0.4 0 0.4
v 0.4 0 0.3
v 0.4 0 -0.4
v 0.4 0.1 0.3
v 0.4 0.1 0.2
v 0.4 0.1 -0.2
v 0.4 0.2 0.3
v 0.4 0.2 0.2
v 0.4 0.2 -0.2
v 0.4 0.2 -0.3
v 0.4 0.3 0.4
v 0.4 0.3 0.3
v 0.4 0.3 -0.3
v 0.4 0.3 -0.4
v 0.4 0.7 0.4
v 0.4 0.7 0.3
v 0.4 0.7 -0.3
v 0.4 0.7 -0.4
v 0.4 0.8 0.3
v 0.4 0.8 0.2
v 0.4 0.8 -0.2
v 0.4 0.8 -0.3
v 0.4 0.9 0.3
v 0.4 0.9 0.2
v 0.4 0.9 -0.2
v 0.4 1 0.4
v 0.4 1 0.3
v 0.4 1 -0.4
v -0.4 0 0.4
v -0.4 0.3 0.4
v -0.4 0.7 0.4
v -0.4 1 0.4
v -0.3 0 0.4
v -0.3 0.1 0.4
v -0.3 0.2 0.4
v -0.3 0.3 0.4
v -0.3 0.7 0.4
v -0.3 0.8 0.4
v -0.3 0.9 0.4
v -0.3 1 0.4
v -0.2 0.1 0.4
v -0.2 0.2 0.4
v -0.2 0.8 0.4
v -0.2 0.9 0.4
v 0.2 0.1 0.4
v 0.2 0.2 0.4
v 0.2 0.8 0.4
v 0.2 0.9 0.4
v 0.3 0 0.4
v 0.3 0.1 0.4
v 0.3 0.2 0.4
v 0.3 0.3 0.4
v 0.3 0.7 0.4
v 0.3 0.8 0.4
v 0.3 0.9 0.4
v 0.3 1 0.4
v 0.4 0 0.4
v 0.4 0.3 0.4
v 0.4 0.7 0.4
v 0.4 1 0.4
v -0.3 0.2 0.3
v -0.3 0.3 0.3
v -0.3 0.7 0.3
v -0.3 0.8 0.3
v -0.2 0.1 0.3
v -0.2 0.2 0.3
v -0.2 0.3 0.3
v -0.2 0.7 0.3
v -0.2 0.8 0.3
v -0.2 0.9 0.3
v -0.1 0.4 0.3
v -0.1 0.7 0.3
v 0.2 0.1 0.3
v 0.2 0.2 0.3
v 0.2 0.3 0.3
v 0.2 0.4 0.3
v 0.2 0.8 0.3
v 0.2 0.9 0.3
v 0.3 0.2 0.3
v 0.3 0.3 0.3
v 0.3 0.7 0.3
v 0.3 0.8 0.3
v -0.3 0.4 -0.1
v -0.3 0.6 -0.1
v -0.2 0.4 -0.1
v -0.2 0.6 -0.1
v -0.4 0.1 -0.2
v -0.4 0.2 -0.2
v -0.4 0.8 -0.2
v -0.4 0.9 -0.2
v -0.3 0.1 -0.2
v -0.3 0.2 -0.2
v -0.3 0.8 -0.2
v -0.3 0.9 -0.2
v 0.3 0.1 -0.2
v 0.3 0.2 -0.2
v 0.3 0.8 -0.2
v 0.3 0.9 -0.2
v 0.4 0.1 -0.2
v 0.4 0.2 -0.2
v 0.4 0.8 -0.2
v 0.4 0.9 -0.2
v -0.4 0.2 -0.3
v -0.4 0.3 -0.3
v -0.4 0.7 -0.3
v -0.4 0.8 -0.3
v -0.3 0.2 -0.3
v -0.3 0.3 -0.3
v -0.3 0.7 -0.3
v -0.3 0.8 -0.3
v 0.3 0.2 -0.3
v 0.3 0.3 -0.3
v 0.3 0.7 -0.3
v 0.3 0.8 -0.3
v 0.4 0.2 -0.3
v 0.4 0.3 -0.3
v 0.4 0.7 -0.3
v 0.4 0.8 -0.3
v -0.4 0.2 0.3
v -0.4 0.3 0.3
v -0.4 0.7 0.3
v -0.4 0.8 0.3
v -0.3 0.2 0.3
v -0.3 0.3 0.3
v -0.3 0.7 0.3
v -0.3 0.8 0.3
v 0.3 0.2 0.3
v 0.3 0.3 0.3
v 0.3 0.7 0.3
v 0.3 0.8 0.3
v 0.4 0.2 0.3
v 0.4 0.3 0.3
v 0.4 0.7 0.3
v 0.4 0.8 0.3
v -0.4 0.1 0.2
v -0.4 0.2 0.2
v -0.4 0.8 0.2
v -0.4 0.9 0.2
v -0.3 0.1 0.2
v -0.3 0.2 0.2
v -0.3 0.8 0.2
v -0.3 0.9 0.2
v 0.3 0.1 0.2
v 0.3 0.2 0.2
v 0.3 0.8 0.2
v 0.3 0.9 0.2
v 0.4 0.1 0.2
v 0.4 0.2 0.2
v 0.4 0.8 0.2
v 0.4 0.9 0.2
v -0.3 0.4 0.1
v -0.3 0.6 0.1
v -0.2 0.4 0.1
v -0.2 0.6 0.1
v -0.3 0.2 -0.3
v -0.3 0.3 -0.3
v -0.3 0.7 -0.3
v -0.3 0.8 -0.3
v -0.2 0.1 -0.3
v -0.2 0.2 -0.3
v -0.2 0.3 -0.3
v -0.2 0.4 -0.3
v -0.2 0.8 -0.3
v -0.2 0.9 -0.3
v 0.1 0.4 -0.3
v 0.1 0.7 -0.3
v 0.2 0.1 -0.3
v 0.2 0.2 -0.3
v 0.2 0.3 -0.3
v 0.2 0.7 -0.3
v 0.2 0.8 -0.3
v 0.2 0.9 -0.3
v 0.3 0.2 -0.3
v 0.3 0.3 -0.3
v 0.3 0.7 -0.3
v 0.3 0.8 -0.3
v -0.4 0 -0.4
v -0.4 0.3 -0.4
v -0.4 0.7 -0.4
v -0.4 1 -0.4
v -0.3 0.2 -0.4
v -0.3 0.3 -0.4
v -0.3 0.7 -0.4
v -0.3 0.8 -0.4
v -0.2 0.1 -0.4
v -0.2 0.2 -0.4
v -0.2 0.8 -0.4
v -0.2 0.9 -0.4
v 0.2 0.1 -0.4
v 0.2 0.2 -0.4
v 0.2 0.8 -0.4
v 0.2 0.9 -0.4
v 0.3 0.2 -0.4
v 0.3 0.3 -0.4
v 0.3 0.7 -0.4
v 0.3 0.8 -0.4
v 0.4 0 -0.4
v 0.4 0.3 -0.4
v 0.4 0.7 -0.4
v 0.4 1 -0.4
v -0.4 0 0.4
v -0.3 0 0.4
v 0.3 0 0.4
v 0.4 0 0.4
v -0.4 0 0.3
v -0.3 0 0.3
v 0.3 0 0.3
v 0.4 0 0.3
v -0.4 0 -0.4
v 0.4 0 -0.4
v -0.3 0.6 0.1
v -0.2 0.6 0.1
v -0.3 0.6 -0.1
v -0.2 0.6 -0.1
v -0.4 0.7 0.4
v -0.3 0.7 0.4
v 0.3 0.7 0.4
v 0.4 0.7 0.4
v -0.4 0.7 0.3
v -0.3 0.7 0.3
v 0.3 0.7 0.3
v 0.4 0.7 0.3
v -0.4 0.7 -0.3
v -0.3 0.7 -0.3
v 0.3 0.7 -0.3
v 0.4 0.7 -0.3
v -0.4 0.7 -0.4
v -0.3 0.7 -0.4
v 0.3 0.7 -0.4
v 0.4 0.7 -0.4
v -0.3 0.8 0.4
v -0.2 0.8 0.4
v 0.2 0.8 0.4
v 0.3 0.8 0.4
v -0.4 0.8 0.3
v -0.3 0.8 0.3
v -0.2 0.8 0.3
v 0.2 0.8 0.3
v 0.3 0.8 0.3
v 0.4 0.8 0.3
v -0.4 0.8 0.2
v -0.3 0.8 0.2
v 0.3 0.8 0.2
v 0.4 0.8 0.2
v -0.4 0.8 -0.2
v -0.3 0.8 -0.2
v 0.3 0.8 -0.2
v 0.4 0.8 -0.2
v -0.4 0.8 -0.3
v -0.3 0.8 -0.3
v -0.2 0.8 -0.3
v 0.2 0.8 -0.3
v 0.3 0.8 -0.3
v 0.4 0.8 -0.3
v -0.3 0.8 -0.4
v -0.2 0.8 -0.4
v 0.2 0.8 -0.4
v 0.3 0.8 -0.4
v -0.2 0.9 0.4
v 0.2 0.9 0.4
v -0.2 0.9 0.3
v 0.2 0.9 0.3
v -0.4 0.9 0.2
v -0.3 0.9 0.2
v 0.3 0.9 0.2
v 0.4 0.9 0.2
v -0.4 0.9 -0.2
v -0.3 0.9 -0.2
v 0.3 0.9 -0.2
v 0.4 0.9 -0.2
v -0.2 0.9 -0.3
v 0.2 0.9 -0.3
v -0.2 0.9 -0.4
v 0.2 0.9 -0.4
v -0.2 0.1 0.4
v 0.2 0.1 0.4
v -0.2 0.1 0.3
v 0.2 0.1 0.3
v -0.4 0.1 0.2
v -0.3 0.1 0.2
v 0.3 0.1 0.2
v 0.4 0.1 0.2
v -0.4 0.1 -0.2
v -0.3 0.1 -0.2
v 0.3 0.1 -0.2
v 0.4 0.1 -0.2
v -0.2 0.1 -0.3
v 0.2 0.1 -0.3
v -0.2 0.1 -0.4
v 0.2 0.1 -0.4
v -0.3 0.2 0.4
v -0.2 0.2 0.4
v 0.2 0.2 0.4
v 0.3 0.2 0.4
v -0.4 0.2 0.3
v -0.3 0.2 0.3
v -0.2 0.2 0.3
v 0.2 0.2 0.3
v 0.3 0.2 0.3
v 0.4 0.2 0.3
v -0.4 0.2 0.2
v -0.3 0.2 0.2
v 0.3 0.2 0.2
v 0.4 0.2 0.2
v -0.4 0.2 -0.2
v -0.3 0.2 -0.2
v 0.3 0.2 -0.2
v 0.4 0.2 -0.2
v -0.4 0.2 -0.3
v -0.3 0.2 -0.3
v -0.2 0.2 -0.3
v 0.2 0.2 -0.3
v 0.3 0.2 -0.3
v 0.4 0.2 -0.3
v -0.3 0.2 -0.4
v -0.2 0.2 -0.4
v 0.2 0.2 -0.4
v 0.3 0.2 -0.4
v -0.4 0.3 0.4
v -0.3 0.3 0.4
v 0.3 0.3 0.4
v 0.4 0.3 0.4
v -0.4 0.3 0.3
v -0.3 0.3 0.3
v 0.3 0.3 0.3
v 0.4 0.3 0.3
v -0.4 0.3 -0.3
v -0.3 0.3 -0.3
v 0.3 0.3 -0.3
v 0.4 0.3 -0.3
v -0.4 0.3 -0.4
v -0.3 0.3 -0.4
v 0.3 0.3 -0.4
v 0.4 0.3 -0.4
v -0.3 0.4 0.1
v -0.2 0.4 0.1
v -0.3 0.4 -0.1
v -0.2 0.4 -0.1
v -0.4 1 0.4
v -0.3 1 0.4
v 0.3 1 0.4
v 0.4 1 0.4
v -0.4 1 0.3
v -0.3 1 0.3
v -0.2 1 0.3
v -0.1 1 0.3
v 0.3 1 0.3
v 0.4 1 0.3
v -0.3 1 0.2
v -0.2 1 0.2
v -0.1 1 0.2
v 0 1 0.2
v -0.3 1 0.1
v -0.2 1 0.1
v -0.1 1 0.1
v 0 1 0.1
v 0.1 1 0.1
v 0.2 1 0.1
v -0.1 1 -0.1
v 0.1 1 -0.1
v -0.2 1 -0.2
v 0.2 1 -0.2
v -0.4 1 -0.4
v 0.4 1 -0.4

# faces
f 4/3/1 2/3/1 1/3/1
f 4/2/1 3/2/1 2/2/1
f 5/2/1 3/2/1 4/2/1
f 6/2/1 3/2/1 5/2/1
f 7/3/1 4/3/1 1/3/1
f 7/3/1 5/3/1 4/3/1
f 8/3/1 5/3/1 7/3/1
f 9/2/1 3/2/1 6/2/1
f 10/2/1 3/2/1 9/2/1
f 11/3/1 7/3/1 1/3/1
f 12/3/1 7/3/1 11/3/1
f 13/2/1 3/2/1 10/2/1
f 14/2/1 3/2/1 13/2/1
f 19/3/1 16/3/1 15/3/1
f 22/2/1 18/2/1 17/2/1
f 23/3/1 20/3/1 19/3/1
f 23/3/1 19/3/1 15/3/1
f 24/3/1 20/3/1 23/3/1
f 25/2/1 22/2/1 21/2/1
f 26/3/1 23/3/1 15/3/1
f 27/2/1 24/2/1 23/2/1
f 27/3/1 23/3/1 26/3/1
f 27/2/1 25/2/1 24/2/1
f 28/2/1 18/2/1 22/2/1
f 28/2/1 25/2/1 27/2/1
f 28/2/1 22/2/1 25/2/1
f 32/1/1 30/1/1 29/1/1
f 33/1/1 30/1/1 32/1/1
f 35/1/1 32/1/1 31/1/1
f 35/1/1 34/1/1 33/1/1
f 35/1/1 33/1/1 32/1/1
f 36/1/1 34/1/1 35/1/1
f 37/1/1 36/1/1 35/1/1
f 38/1/1 36/1/1 37/1/1
f 39/1/1 37/1/1 35/1/1
f 40/1/1 36/1/1 38/1/1
f 41/1/1 39/1/1 35/1/1
f 41/1/1 40/1/1 39/1/1
f 42/1/1 36/1/1 40/1/1
f 42/1/1 40/1/1 41/1/1
f 43/1/1 42/1/1 41/1/1
f 44/1/1 42/1/1 43/1/1
f 45/1/1 42/1/1 44/1/1
f 46/1/1 42/1/1 45/1/1
f 47/1/1 45/1/1 44/1/1
f 48/1/1 45/1/1 47/1/1
f 51/3/1 50/3/1 49/3/1
f 52/3/1 50/3/1 51/3/1
f 57/3/1 54/3/1 53/3/1
f 58/3/1 54/3/1 57/3/1
f 59/2/1 56/2/1 55/2/1
f 60/2/1 56/2/1 59/2/1
f 65/3/1 62/3/1 61/3/1
f 66/3/1 62/3/1 65/3/1
f 67/2/1 64/2/1 63/2/1
f 68/2/1 64/2/1 67/2/1
f 73/3/1 70/3/1 69/3/1
f 74/3/1 70/3/1 73/3/1
f 75/2/1 72/2/1 71/2/1
f 76/2/1 72/2/1 75/2/1
f 81/3/1 78/3/1 77/3/1
f 82/3/1 78/3/1 81/3/1
f 83/2/1 80/2/1 79/2/1
f 84/2/1 80/2/1 83/2/1
f 85/3/2 86/3/2 89/3/2
f 89/3/2 86/3/2 90/3/2
f 87/2/2 88/2/2 91/2/2
f 91/2/2 88/2/2 92/2/2
f 93/3/2 94/3/2 97/3/2
f 97/3/2 94/3/2 98/3/2
f 95/2/2 96/2/2 99/2/2
f 99/2/2 96/2/2 100/2/2
f 101/3/2 102/3/2 105/3/2
f 105/3/2 102/3/2 106/3/2
f 103/2/2 104/2/2 107/2/2
f 107/2/2 104/2/2 108/2/2
f 109/3/2 110/3/2 113/3/2
f 113/3/2 110/3/2 114/3/2
f 111/2/2 112/2/2 115/2/2
f 115/2/2 112/2/2 116/2/2
f 117/1/2 118/1/2 120/1/2
f 120/1/2 118/1/2 121/1/2
f 121/1/2 118/1/2 122/1/2
f 122/1/2 118/1/2 123/1/2
f 119/1/2 120/1/2 125/1/2
f 120/3/2 121/3/2 126/3/2
f 125/1/2 120/1/2 126/1/2
f 121/1/2 122/1/2 127/1/2
f 126/3/2 121/3/2 127/3/2
f 122/3/2 123/3/2 128/3/2
f 127/1/2 122/1/2 128/1/2
f 123/1/2 124/1/2 129/1/2
f 128/3/2 123/3/2 129/3/2
f 129/1/2 124/1/2 130/1/2
f 127/1/2 128/1/2 131/1/2
f 125/1/2 126/1/2 131/1/2
f 129/1/2 130/1/2 131/1/2
f 128/1/2 129/1/2 131/1/2
f 126/1/2 127/1/2 131/1/2
f 131/1/2 130/1/2 132/1/2
f 132/1/2 130/1/2 133/1/2
f 133/1/2 130/1/2 134/1/2
f 125/1/2 131/1/2 135/1/2
f 131/3/2 132/3/2 135/3/2
f 132/1/2 133/1/2 136/1/2
f 135/3/2 132/3/2 136/3/2
f 133/3/2 134/3/2 137/3/2
f 136/1/2 133/1/2 137/1/2
f 134/1/2 130/1/2 138/1/2
f 137/3/2 134/3/2 138/3/2
f 136/1/2 137/1/2 139/1/2
f 135/1/2 136/1/2 139/1/2
f 137/1/2 138/1/2 139/1/2
f 125/1/2 135/1/2 139/1/2
f 139/1/2 138/1/2 140/1/2
f 140/1/2 138/1/2 141/1/2
f 138/1/2 130/1/2 142/1/2
f 141/1/2 138/1/2 142/1/2
f 125/1/2 139/1/2 143/1/2
f 139/3/2 140/3/2 144/3/2
f 143/1/2 139/1/2 144/1/2
f 140/1/2 141/1/2 145/1/2
f 144/3/2 140/3/2 145/3/2
f 141/3/2 142/3/2 146/3/2
f 145/1/2 141/1/2 146/1/2
f 142/1/2 130/1/2 147/1/2
f 146/3/2 142/3/2 147/3/2
f 147/1/2 130/1/2 148/1/2
f 143/1/2 144/1/2 149/1/2
f 145/1/2 146/1/2 149/1/2
f 147/1/2 148/1/2 149/1/2
f 146/1/2 147/1/2 149/1/2
f 144/1/2 145/1/2 149/1/2
f 149/1/2 148/1/2 150/1/2
f 150/1/2 148/1/2 151/1/2
f 151/1/2 148/1/2 152/1/2
f 150/1/2 151/1/2 153/1/2
f 153/1/2 151/1/2 154/1/2
f 155/3/2 156/3/2 158/3/2
f 156/2/2 157/2/2 158/2/2
f 158/2/2 157/2/2 159/2/2
f 159/2/2 157/2/2 160/2/2
f 155/3/2 158/3/2 161/3/2
f 158/3/2 159/3/2 161/3/2
f 161/3/2 159/3/2 162/3/2
f 160/2/2 157/2/2 163/2/2
f 163/2/2 157/2/2 164/2/2
f 155/3/2 161/3/2 165/3/2
f 165/3/2 161/3/2 166/3/2
f 164/2/2 157/2/2 167/2/2
f 167/2/2 157/2/2 168/2/2
f 169/3/2 170/3/2 173/3/2
f 171/2/2 172/2/2 176/2/2
f 173/3/2 174/3/2 177/3/2
f 169/3/2 173/3/2 177/3/2
f 177/3/2 174/3/2 178/3/2
f 175/2/2 176/2/2 179/2/2
f 169/3/2 177/3/2 180/3/2
f 177/2/2 178/2/2 181/2/2
f 180/3/2 177/3/2 181/3/2
f 178/2/2 179/2/2 181/2/2
f 176/2/2 172/2/2 182/2/2
f 181/2/2 179/2/2 182/2/2
f 179/2/2 176/2/2 182/2/2
f 187/3/3 184/3/3 183/3/3
f 188/3/3 184/3/3 187/3/3
f 189/3/3 184/3/3 188/3/3
f 190/3/3 184/3/3 189/3/3
f 191/3/3 186/3/3 185/3/3
f 192/3/3 186/3/3 191/3/3
f 193/3/3 186/3/3 192/3/3
f 194/3/3 186/3/3 193/3/3
f 195/2/3 188/2/3 187/2/3
f 195/3/3 189/3/3 188/3/3
f 196/3/3 189/3/3 195/3/3
f 197/3/3 193/3/3 192/3/3
f 198/2/3 194/2/3 193/2/3
f 198/3/3 193/3/3 197/3/3
f 199/2/3 195/2/3 187/2/3
f 202/2/3 194/2/3 198/2/3
f 203/2/3 199/2/3 187/2/3
f 204/3/3 200/3/3 199/3/3
f 204/2/3 199/2/3 203/2/3
f 205/3/3 200/3/3 204/3/3
f 208/3/3 202/3/3 201/3/3
f 209/2/3 194/2/3 202/2/3
f 209/3/3 202/3/3 208/3/3
f 210/2/3 194/2/3 209/2/3
f 211/3/3 206/3/3 205/3/3
f 211/3/3 204/3/3 203/3/3
f 211/3/3 205/3/3 204/3/3
f 212/3/3 206/3/3 211/3/3
f 213/3/3 208/3/3 207/3/3
f 213/3/3 210/3/3 209/3/3
f 213/3/3 209/3/3 208/3/3
f 214/3/3 210/3/3 213/3/3
f 220/1/3 216/1/3 215/1/3
f 220/1/3 218/1/3 217/1/3
f 220/1/3 217/1/3 216/1/3
f 221/1/3 218/1/3 220/1/3
f 222/1/3 218/1/3 221/1/3
f 223/1/3 218/1/3 222/1/3
f 225/2/3 222/2/3 221/2/3
f 226/1/3 224/1/3 223/1/3
f 226/2/3 222/2/3 225/2/3
f 226/1/3 223/1/3 222/1/3
f 227/1/3 220/1/3 219/1/3
f 227/1/3 221/1/3 220/1/3
f 228/1/3 221/1/3 227/1/3
f 229/2/3 225/2/3 221/2/3
f 229/1/3 221/1/3 228/1/3
f 230/1/3 226/1/3 225/1/3
f 230/2/3 225/2/3 229/2/3
f 231/1/3 224/1/3 226/1/3
f 231/1/3 226/1/3 230/1/3
f 232/1/3 224/1/3 231/1/3
f 233/1/3 230/1/3 229/1/3
f 233/1/3 229/1/3 228/1/3
f 233/1/3 231/1/3 230/1/3
f 234/1/3 231/1/3 233/1/3
f 235/1/3 231/1/3 234/1/3
f 236/1/3 231/1/3 235/1/3
f 239/1/3 238/1/3 237/1/3
f 240/1/3 238/1/3 239/1/3
f 245/2/3 242/2/3 241/2/3
f 246/2/3 242/2/3 245/2/3
f 247/2/3 244/2/3 243/2/3
f 248/2/3 244/2/3 247/2/3
f 253/2/3 250/2/3 249/2/3
f 254/2/3 250/2/3 253/2/3
f 255/2/3 252/2/3 251/2/3
f 256/2/3 252/2/3 255/2/3
f 261/2/3 258/2/3 257/2/3
f 262/2/3 258/2/3 261/2/3
f 263/2/3 260/2/3 259/2/3
f 264/2/3 260/2/3 263/2/3
f 269/2/3 266/2/3 265/2/3
f 270/2/3 266/2/3 269/2/3
f 271/2/3 268/2/3 267/2/3
f 272/2/3 268/2/3 271/2/3
f 273/3/4 274/3/4 277/3/4
f 277/3/4 274/3/4 278/3/4
f 275/3/4 276/3/4 279/3/4
f 279/3/4 276/3/4 280/3/4
f 281/3/4 282/3/4 285/3/4
f 285/3/4 282/3/4 286/3/4
f 283/3/4 284/3/4 287/3/4
f 287/3/4 284/3/4 288/3/4
f 289/3/4 290/3/4 293/3/4
f 293/3/4 290/3/4 294/3/4
f 291/3/4 292/3/4 295/3/4
f 295/3/4 292/3/4 296/3/4
f 297/3/4 298/3/4 301/3/4
f 301/3/4 298/3/4 302/3/4
f 299/3/4 300/3/4 303/3/4
f 303/3/4 300/3/4 304/3/4
f 305/1/4 306/1/4 307/1/4
f 307/1/4 306/1/4 308/1/4
f 309/1/4 310/1/4 314/1/4
f 311/1/4 312/1/4 314/1/4
f 310/1/4 311/1/4 314/1/4
f 314/1/4 312/1/4 315/1/4
f 315/1/4 312/1/4 316/1/4
f 316/1/4 312/1/4 317/1/4
f 315/2/4 316/2/4 319/2/4
f 317/1/4 318/1/4 319/1/4
f 316/1/4 317/1/4 319/1/4
f 319/1/4 318/1/4 320/1/4
f 313/1/4 314/1/4 321/1/4
f 314/1/4 315/1/4 321/1/4
f 321/1/4 315/1/4 322/1/4
f 319/2/4 320/2/4 323/2/4
f 322/1/4 315/1/4 323/1/4
f 315/2/4 319/2/4 323/2/4
f 320/1/4 318/1/4 324/1/4
f 323/2/4 320/2/4 324/2/4
f 324/1/4 318/1/4 325/1/4
f 325/1/4 318/1/4 326/1/4
f 322/1/4 323/1/4 327/1/4
f 324/1/4 325/1/4 327/1/4
f 323/1/4 324/1/4 327/1/4
f 327/1/4 325/1/4 328/1/4
f 328/1/4 325/1/4 329/1/4
f 329/1/4 325/1/4 330/1/4
f 331/2/4 332/2/4 335/2/4
f 335/2/4 332/2/4 336/2/4
f 333/2/4 334/2/4 337/2/4
f 337/2/4 334/2/4 338/2/4
f 331/2/4 335/2/4 339/2/4
f 339/2/4 335/2/4 340/2/4
f 338/2/4 334/2/4 341/2/4
f 341/2/4 334/2/4 342/2/4
f 331/2/4 339/2/4 343/2/4
f 342/2/4 334/2/4 346/2/4
f 343/2/4 344/2/4 347/2/4
f 345/2/4 346/2/4 350/2/4
f 347/2/4 348/2/4 351/2/4
f 331/2/4 343/2/4 351/2/4
f 343/2/4 347/2/4 351/2/4
f 351/2/4 348/2/4 352/2/4
f 349/2/4 350/2/4 353/2/4
f 350/2/4 346/2/4 354/2/4
f 353/2/4 350/2/4 354/2/4
f 346/2/4 334/2/4 354/2/4
f 359/3/5 356/3/5 355/3/5
f 360/2/5 357/2/5 356/2/5
f 360/3/5 356/3/5 359/3/5
f 361/3/5 358/3/5 357/3/5
f 361/2/5 357/2/5 360/2/5
f 362/3/5 358/3/5 361/3/5
f 363/2/5 360/2/5 359/2/5
f 363/2/5 361/2/5 360/2/5
f 363/2/5 362/2/5 361/2/5
f 364/2/5 362/2/5 363/2/5
f 367/1/5 366/1/5 365/1/5
f 368/1/5 366/1/5 367/1/5
f 373/3/5 370/3/5 369/3/5
f 374/3/5 370/3/5 373/3/5
f 375/3/5 372/3/5 371/3/5
f 376/3/5 372/3/5 375/3/5
f 381/2/5 378/2/5 377/2/5
f 382/2/5 378/2/5 381/2/5
f 383/2/5 380/2/5 379/2/5
f 384/2/5 380/2/5 383/2/5
f 390/3/5 386/3/5 385/3/5
f 391/3/5 386/3/5 390/3/5
f 392/3/5 388/3/5 387/3/5
f 393/3/5 388/3/5 392/3/5
f 395/3/5 390/3/5 389/3/5
f 396/3/5 390/3/5 395/3/5
f 397/3/5 394/3/5 393/3/5
f 398/3/5 394/3/5 397/3/5
f 403/2/5 400/2/5 399/2/5
f 404/2/5 400/2/5 403/2/5
f 407/2/5 402/2/5 401/2/5
f 408/2/5 402/2/5 407/2/5
f 409/2/5 405/2/5 404/2/5
f 410/2/5 405/2/5 409/2/5
f 411/2/5 407/2/5 406/2/5
f 412/2/5 407/2/5 411/2/5
f 415/2/5 414/2/5 413/2/5
f 416/2/5 414/2/5 415/2/5
f 421/2/5 418/2/5 417/2/5
f 422/2/5 418/2/5 421/2/5
f 423/2/5 420/2/5 419/2/5
f 424/2/5 420/2/5 423/2/5
f 427/2/5 426/2/5 425/2/5
f 428/2/5 426/2/5 427/2/5
f 429/2/6 430/2/6 431/2/6
f 431/2/6 430/2/6 432/2/6
f 433/2/6 434/2/6 437/2/6
f 437/2/6 434/2/6 438/2/6
f 435/2/6 436/2/6 439/2/6
f 439/2/6 436/2/6 440/2/6
f 441/2/6 442/2/6 443/2/6
f 443/2/6 442/2/6 444/2/6
f 445/3/6 446/3/6 450/3/6
f 450/3/6 446/3/6 451/3/6
f 447/3/6 448/3/6 452/3/6
f 452/3/6 448/3/6 453/3/6
f 449/3/6 450/3/6 455/3/6
f 455/3/6 450/3/6 456/3/6
f 453/3/6 454/3/6 457/3/6
f 457/3/6 454/3/6 458/3/6
f 459/2/6 460/2/6 463/2/6
f 463/2/6 460/2/6 464/2/6
f 461/2/6 462/2/6 467/2/6
f 467/2/6 462/2/6 468/2/6
f 464/2/6 465/2/6 469/2/6
f 469/2/6 465/2/6 470/2/6
f 466/2/6 467/2/6 471/2/6
f 471/2/6 467/2/6 472/2/6
f 473/3/6 474/3/6 477/3/6
f 477/3/6 474/3/6 478/3/6
f 475/3/6 476/3/6 479/3/6
f 479/3/6 476/3/6 480/3/6
f 481/2/6 482/2/6 485/2/6
f 485/2/6 482/2/6 486/2/6
f 483/2/6 484/2/6 487/2/6
f 487/2/6 484/2/6 488/2/6
f 489/1/6 490/1/6 491/1/6
f 491/1/6 490/1/6 492/1/6
f 493/3/6 494/3/6 497/3/6
f 494/2/6 495/2/6 498/2/6
f 497/3/6 494/3/6 498/3/6
f 498/2/6 495/2/6 499/2/6
f 499/2/6 495/2/6 500/2/6
f 495/3/6 496/3/6 501/3/6
f 500/2/6 495/2/6 501/2/6
f 501/3/6 496/3/6 502/3/6
f 497/2/6 498/2/6 503/2/6
f 498/2/6 499/2/6 503/2/6
f 499/1/6 500/1/6 504/1/6
f 503/2/6 499/2/6 504/2/6
f 501/2/6 502/2/6 505/2/6
f 504/1/6 500/1/6 505/1/6
f 500/2/6 501/2/6 505/2/6
f 505/2/6 502/2/6 506/2/6
f 497/2/6 503/2/6 507/2/6
f 503/1/6 504/1/6 507/1/6
f 505/1/6 506/1/6 507/1/6
f 504/1/6 505/1/6 507/1/6
f 507/1/6 506/1/6 508/1/6
f 508/1/6 506/1/6 509/1/6
f 506/2/6 502/2/6 510/2/6
f 509/1/6 506/1/6 510/1/6
f 510/2/6 502/2/6 511/2/6
f 511/2/6 502/2/6 512/2/6
f 508/1/6 509/1/6 513/1/6
f 509/2/6 510/2/6 513/2/6
f 510/2/6 511/2/6 513/2/6
f 511/1/6 512/1/6 514/1/6
f 513/2/6 511/2/6 514/2/6
f 507/2/6 508/2/6 515/2/6
f 508/1/6 513/1/6 515/1/6
f 513/1/6 514/1/6 515/1/6
f 512/2/6 502/2/6 516/2/6
f 515/1/6 514/1/6 516/1/6
f 514/1/6 512/1/6 516/1/6
f 507/2/6 515/2/6 517/2/6
f 497/2/6 507/2/6 517/2/6
f 515/2/6 516/2/6 517/2/6
f 516/2/6 502/2/6 518/2/6
f 517/2/6 516/2/6 518/2/6
