# MagicaVoxel @ Ephtracy

# group
o 

# material
mtllib rightRotator.mtl
usemtl palette

# normals
vn -1 0 0
vn 1 0 0
vn 0 0 1
vn 0 0 -1
vn 0 -1 0
vn 0 1 0

# texcoords
vt 0.970703 0.5
vt 0.974609 0.5
vt 0.978516 0.5

# verts
v -0.4 0 0.4
v -0.4 0 -0.3
v -0.4 0 -0.4
v -0.4 0.1 0.2
v -0.4 0.1 -0.2
v -0.4 0.1 -0.3
v -0.4 0.2 0.3
v -0.4 0.2 0.2
v -0.4 0.2 -0.2
v -0.4 0.2 -0.3
v -0.4 0.3 0.4
v -0.4 0.3 0.3
v -0.4 0.3 -0.3
v -0.4 0.3 -0.4
v -0.4 0.7 0.4
v -0.4 0.7 0.3
v -0.4 0.7 -0.3
v -0.4 0.7 -0.4
v -0.4 0.8 0.3
v -0.4 0.8 0.2
v -0.4 0.8 -0.2
v -0.4 0.8 -0.3
v -0.4 0.9 0.2
v -0.4 0.9 -0.2
v -0.4 0.9 -0.3
v -0.4 1 0.4
v -0.4 1 -0.3
v -0.4 1 -0.4
v -0.3 0.1 0.2
v -0.3 0.1 -0.2
v -0.3 0.2 0.3
v -0.3 0.2 0.2
v -0.3 0.2 -0.2
v -0.3 0.2 -0.3
v -0.3 0.3 0.3
v -0.3 0.3 -0.3
v -0.3 0.4 0.1
v -0.3 0.4 -0.1
v -0.3 0.6 0.1
v -0.3 0.6 -0.1
v -0.3 0.7 0.3
v -0.3 0.7 -0.3
v -0.3 0.8 0.3
v -0.3 0.8 0.2
v -0.3 0.8 -0.2
v -0.3 0.8 -0.3
v -0.3 0.9 0.2
v -0.3 0.9 -0.2
v -0.2 0.4 0.1
v -0.2 0.4 -0.1
v -0.2 0.6 0.1
v -0.2 0.6 -0.1
v 0.2 0.1 0.4
v 0.2 0.1 0.3
v 0.2 0.1 -0.3
v 0.2 0.1 -0.4
v 0.2 0.2 0.4
v 0.2 0.2 0.3
v 0.2 0.2 -0.3
v 0.2 0.2 -0.4
v 0.2 0.8 0.4
v 0.2 0.8 0.3
v 0.2 0.8 -0.3
v 0.2 0.8 -0.4
v 0.2 0.9 0.4
v 0.2 0.9 0.3
v 0.2 0.9 -0.3
v 0.2 0.9 -0.4
v 0.3 0.2 0.4
v 0.3 0.2 0.3
v 0.3 0.2 -0.3
v 0.3 0.2 -0.4
v 0.3 0.3 0.4
v 0.3 0.3 0.3
v 0.3 0.3 -0.3
v 0.3 0.3 -0.4
v 0.3 0.7 0.4
v 0.3 0.7 0.3
v 0.3 0.7 -0.3
v 0.3 0.7 -0.4
v 0.3 0.8 0.4
v 0.3 0.8 0.3
v 0.3 0.8 -0.3
v 0.3 0.8 -0.4
v -0.3 0.2 0.4
v -0.3 0.2 0.3
v -0.3 0.2 -0.3
v -0.3 0.2 -0.4
v -0.3 0.3 0.4
v -0.3 0.3 0.3
v -0.3 0.3 -0.3
v -0.3 0.3 -0.4
v -0.3 0.7 0.4
v -0.3 0.7 0.3
v -0.3 0.7 -0.3
v -0.3 0.7 -0.4
v -0.3 0.8 0.4
v -0.3 0.8 0.3
v -0.3 0.8 -0.3
v -0.3 0.8 -0.4
v -0.2 0.1 0.4
v -0.2 0.1 0.3
v -0.2 0.1 -0.3
v -0.2 0.1 -0.4
v -0.2 0.2 0.4
v -0.2 0.2 0.3
v -0.2 0.2 -0.3
v -0.2 0.2 -0.4
v -0.2 0.8 0.4
v -0.2 0.8 0.3
v -0.2 0.8 -0.3
v -0.2 0.8 -0.4
v -0.2 0.9 0.4
v -0.2 0.9 0.3
v -0.2 0.9 -0.3
v -0.2 0.9 -0.4
v 0.3 0.1 0.2
v 0.3 0.1 -0.2
v 0.3 0.2 0.3
v 0.3 0.2 0.2
v 0.3 0.2 0.1
v 0.3 0.2 -0.1
v 0.3 0.2 -0.2
v 0.3 0.2 -0.3
v 0.3 0.3 0.3
v 0.3 0.3 0.2
v 0.3 0.3 0.1
v 0.3 0.3 -0.1
v 0.3 0.3 -0.2
v 0.3 0.3 -0.3
v 0.3 0.4 0.2
v 0.3 0.4 0.1
v 0.3 0.4 -0.1
v 0.3 0.4 -0.2
v 0.3 0.5 0.2
v 0.3 0.5 0.1
v 0.3 0.5 -0.1
v 0.3 0.5 -0.2
v 0.3 0.6 0.2
v 0.3 0.6 0.1
v 0.3 0.6 -0.1
v 0.3 0.6 -0.2
v 0.3 0.7 0.3
v 0.3 0.7 0.2
v 0.3 0.7 0.1
v 0.3 0.7 -0.1
v 0.3 0.7 -0.2
v 0.3 0.7 -0.3
v 0.3 0.8 0.3
v 0.3 0.8 0.2
v 0.3 0.8 -0.2
v 0.3 0.8 -0.3
v 0.3 0.9 0.2
v 0.3 0.9 -0.2
v 0.4 0 0.4
v 0.4 0 -0.3
v 0.4 0 -0.4
v 0.4 0.1 0.2
v 0.4 0.1 -0.2
v 0.4 0.1 -0.3
v 0.4 0.2 0.3
v 0.4 0.2 0.2
v 0.4 0.2 -0.2
v 0.4 0.2 -0.3
v 0.4 0.3 0.4
v 0.4 0.3 0.3
v 0.4 0.3 -0.3
v 0.4 0.3 -0.4
v 0.4 0.7 0.4
v 0.4 0.7 0.3
v 0.4 0.7 -0.3
v 0.4 0.7 -0.4
v 0.4 0.8 0.3
v 0.4 0.8 0.2
v 0.4 0.8 -0.2
v 0.4 0.8 -0.3
v 0.4 0.9 0.2
v 0.4 0.9 -0.2
v 0.4 0.9 -0.3
v 0.4 1 0.4
v 0.4 1 -0.3
v 0.4 1 -0.4
v -0.4 0 0.4
v -0.4 0.3 0.4
v -0.4 0.7 0.4
v -0.4 1 0.4
v -0.3 0.2 0.4
v -0.3 0.3 0.4
v -0.3 0.7 0.4
v -0.3 0.8 0.4
v -0.2 0.1 0.4
v -0.2 0.2 0.4
v -0.2 0.8 0.4
v -0.2 0.9 0.4
v 0.2 0.1 0.4
v 0.2 0.2 0.4
v 0.2 0.8 0.4
v 0.2 0.9 0.4
v 0.3 0.2 0.4
v 0.3 0.3 0.4
v 0.3 0.7 0.4
v 0.3 0.8 0.4
v 0.4 0 0.4
v 0.4 0.3 0.4
v 0.4 0.7 0.4
v 0.4 1 0.4
v -0.3 0.2 0.3
v -0.3 0.3 0.3
v -0.3 0.7 0.3
v -0.3 0.8 0.3
v -0.2 0.1 0.3
v -0.2 0.2 0.3
v -0.2 0.3 0.3
v -0.2 0.7 0.3
v -0.2 0.8 0.3
v -0.2 0.9 0.3
v -0.1 0.3 0.3
v -0.1 0.4 0.3
v -0.1 0.5 0.3
v -0.1 0.6 0.3
v 0 0.3 0.3
v 0 0.4 0.3
v 0 0.5 0.3
v 0 0.6 0.3
v 0.1 0.5 0.3
v 0.1 0.7 0.3
v 0.2 0.1 0.3
v 0.2 0.2 0.3
v 0.2 0.3 0.3
v 0.2 0.4 0.3
v 0.2 0.8 0.3
v 0.2 0.9 0.3
v 0.3 0.2 0.3
v 0.3 0.3 0.3
v 0.3 0.7 0.3
v 0.3 0.8 0.3
v -0.3 0.4 -0.1
v -0.3 0.6 -0.1
v -0.2 0.4 -0.1
v -0.2 0.6 -0.1
v -0.4 0.1 -0.2
v -0.4 0.2 -0.2
v -0.4 0.8 -0.2
v -0.4 0.9 -0.2
v -0.3 0.1 -0.2
v -0.3 0.2 -0.2
v -0.3 0.8 -0.2
v -0.3 0.9 -0.2
v 0.3 0.1 -0.2
v 0.3 0.2 -0.2
v 0.3 0.8 -0.2
v 0.3 0.9 -0.2
v 0.4 0.1 -0.2
v 0.4 0.2 -0.2
v 0.4 0.8 -0.2
v 0.4 0.9 -0.2
v -0.4 0.2 -0.3
v -0.4 0.3 -0.3
v -0.4 0.7 -0.3
v -0.4 0.8 -0.3
v -0.3 0.2 -0.3
v -0.3 0.3 -0.3
v -0.3 0.7 -0.3
v -0.3 0.8 -0.3
v 0.3 0.2 -0.3
v 0.3 0.3 -0.3
v 0.3 0.7 -0.3
v 0.3 0.8 -0.3
v 0.4 0.2 -0.3
v 0.4 0.3 -0.3
v 0.4 0.7 -0.3
v 0.4 0.8 -0.3
v -0.4 0.2 0.3
v -0.4 0.3 0.3
v -0.4 0.7 0.3
v -0.4 0.8 0.3
v -0.3 0.2 0.3
v -0.3 0.3 0.3
v -0.3 0.7 0.3
v -0.3 0.8 0.3
v 0.3 0.2 0.3
v 0.3 0.3 0.3
v 0.3 0.7 0.3
v 0.3 0.8 0.3
v 0.4 0.2 0.3
v 0.4 0.3 0.3
v 0.4 0.7 0.3
v 0.4 0.8 0.3
v -0.4 0.1 0.2
v -0.4 0.2 0.2
v -0.4 0.8 0.2
v -0.4 0.9 0.2
v -0.3 0.1 0.2
v -0.3 0.2 0.2
v -0.3 0.8 0.2
v -0.3 0.9 0.2
v 0.3 0.1 0.2
v 0.3 0.2 0.2
v 0.3 0.8 0.2
v 0.3 0.9 0.2
v 0.4 0.1 0.2
v 0.4 0.2 0.2
v 0.4 0.8 0.2
v 0.4 0.9 0.2
v -0.3 0.4 0.1
v -0.3 0.6 0.1
v -0.2 0.4 0.1
v -0.2 0.6 0.1
v -0.3 0.2 -0.3
v -0.3 0.3 -0.3
v -0.3 0.7 -0.3
v -0.3 0.8 -0.3
v -0.2 0.1 -0.3
v -0.2 0.2 -0.3
v -0.2 0.3 -0.3
v -0.2 0.4 -0.3
v -0.2 0.8 -0.3
v -0.2 0.9 -0.3
v -0.1 0.5 -0.3
v -0.1 0.7 -0.3
v 0 0.3 -0.3
v 0 0.4 -0.3
v 0 0.5 -0.3
v 0 0.6 -0.3
v 0.1 0.3 -0.3
v 0.1 0.4 -0.3
v 0.1 0.5 -0.3
v 0.1 0.6 -0.3
v 0.2 0.1 -0.3
v 0.2 0.2 -0.3
v 0.2 0.3 -0.3
v 0.2 0.7 -0.3
v 0.2 0.8 -0.3
v 0.2 0.9 -0.3
v 0.3 0.2 -0.3
v 0.3 0.3 -0.3
v 0.3 0.7 -0.3
v 0.3 0.8 -0.3
v -0.4 0 -0.4
v -0.4 0.3 -0.4
v -0.4 0.7 -0.4
v -0.4 1 -0.4
v -0.3 0 -0.4
v -0.3 0.1 -0.4
v -0.3 0.2 -0.4
v -0.3 0.3 -0.4
v -0.3 0.7 -0.4
v -0.3 0.8 -0.4
v -0.3 0.9 -0.4
v -0.3 1 -0.4
v -0.2 0.1 -0.4
v -0.2 0.2 -0.4
v -0.2 0.8 -0.4
v -0.2 0.9 -0.4
v 0.2 0.1 -0.4
v 0.2 0.2 -0.4
v 0.2 0.8 -0.4
v 0.2 0.9 -0.4
v 0.3 0 -0.4
v 0.3 0.1 -0.4
v 0.3 0.2 -0.4
v 0.3 0.3 -0.4
v 0.3 0.7 -0.4
v 0.3 0.8 -0.4
v 0.3 0.9 -0.4
v 0.3 1 -0.4
v 0.4 0 -0.4
v 0.4 0.3 -0.4
v 0.4 0.7 -0.4
v 0.4 1 -0.4
v -0.4 0 0.4
v 0.4 0 0.4
v -0.4 0 -0.3
v -0.3 0 -0.3
v 0.3 0 -0.3
v 0.4 0 -0.3
v -0.4 0 -0.4
v -0.3 0 -0.4
v 0.3 0 -0.4
v 0.4 0 -0.4
v -0.3 0.6 0.1
v -0.2 0.6 0.1
v -0.3 0.6 -0.1
v -0.2 0.6 -0.1
v -0.4 0.7 0.4
v -0.3 0.7 0.4
v 0.3 0.7 0.4
v 0.4 0.7 0.4
v -0.4 0.7 0.3
v -0.3 0.7 0.3
v 0.3 0.7 0.3
v 0.4 0.7 0.3
v -0.4 0.7 -0.3
v -0.3 0.7 -0.3
v 0.3 0.7 -0.3
v 0.4 0.7 -0.3
v -0.4 0.7 -0.4
v -0.3 0.7 -0.4
v 0.3 0.7 -0.4
v 0.4 0.7 -0.4
v -0.3 0.8 0.4
v -0.2 0.8 0.4
v 0.2 0.8 0.4
v 0.3 0.8 0.4
v -0.4 0.8 0.3
v -0.3 0.8 0.3
v -0.2 0.8 0.3
v 0.2 0.8 0.3
v 0.3 0.8 0.3
v 0.4 0.8 0.3
v -0.4 0.8 0.2
v -0.3 0.8 0.2
v 0.3 0.8 0.2
v 0.4 0.8 0.2
v -0.4 0.8 -0.2
v -0.3 0.8 -0.2
v 0.3 0.8 -0.2
v 0.4 0.8 -0.2
v -0.4 0.8 -0.3
v -0.3 0.8 -0.3
v -0.2 0.8 -0.3
v 0.2 0.8 -0.3
v 0.3 0.8 -0.3
v 0.4 0.8 -0.3
v -0.3 0.8 -0.4
v -0.2 0.8 -0.4
v 0.2 0.8 -0.4
v 0.3 0.8 -0.4
v -0.2 0.9 0.4
v 0.2 0.9 0.4
v -0.2 0.9 0.3
v 0.2 0.9 0.3
v -0.4 0.9 0.2
v -0.3 0.9 0.2
v 0.3 0.9 0.2
v 0.4 0.9 0.2
v -0.4 0.9 -0.2
v -0.3 0.9 -0.2
v 0.3 0.9 -0.2
v 0.4 0.9 -0.2
v -0.2 0.9 -0.3
v 0.2 0.9 -0.3
v -0.2 0.9 -0.4
v 0.2 0.9 -0.4
v -0.2 0.1 0.4
v 0.2 0.1 0.4
v -0.2 0.1 0.3
v 0.2 0.1 0.3
v -0.4 0.1 0.2
v -0.3 0.1 0.2
v 0.3 0.1 0.2
v 0.4 0.1 0.2
v -0.4 0.1 -0.2
v -0.3 0.1 -0.2
v 0.3 0.1 -0.2
v 0.4 0.1 -0.2
v -0.2 0.1 -0.3
v 0.2 0.1 -0.3
v -0.2 0.1 -0.4
v 0.2 0.1 -0.4
v -0.3 0.2 0.4
v -0.2 0.2 0.4
v 0.2 0.2 0.4
v 0.3 0.2 0.4
v -0.4 0.2 0.3
v -0.3 0.2 0.3
v -0.2 0.2 0.3
v 0.2 0.2 0.3
v 0.3 0.2 0.3
v 0.4 0.2 0.3
v -0.4 0.2 0.2
v -0.3 0.2 0.2
v 0.3 0.2 0.2
v 0.4 0.2 0.2
v -0.4 0.2 -0.2
v -0.3 0.2 -0.2
v 0.3 0.2 -0.2
v 0.4 0.2 -0.2
v -0.4 0.2 -0.3
v -0.3 0.2 -0.3
v -0.2 0.2 -0.3
v 0.2 0.2 -0.3
v 0.3 0.2 -0.3
v 0.4 0.2 -0.3
v -0.3 0.2 -0.4
v -0.2 0.2 -0.4
v 0.2 0.2 -0.4
v 0.3 0.2 -0.4
v -0.4 0.3 0.4
v -0.3 0.3 0.4
v 0.3 0.3 0.4
v 0.4 0.3 0.4
v -0.4 0.3 0.3
v -0.3 0.3 0.3
v 0.3 0.3 0.3
v 0.4 0.3 0.3
v -0.4 0.3 -0.3
v -0.3 0.3 -0.3
v 0.3 0.3 -0.3
v 0.4 0.3 -0.3
v -0.4 0.3 -0.4
v -0.3 0.3 -0.4
v 0.3 0.3 -0.4
v 0.4 0.3 -0.4
v -0.3 0.4 0.1
v -0.2 0.4 0.1
v -0.3 0.4 -0.1
v -0.2 0.4 -0.1
v -0.4 1 0.4
v 0.4 1 0.4
v -0.2 1 0.2
v 0.2 1 0.2
v -0.1 1 0.1
v 0.1 1 0.1
v -0.3 1 -0.1
v -0.2 1 -0.1
v -0.1 1 -0.1
v 0 1 -0.1
v 0.1 1 -0.1
v 0.2 1 -0.1
v -0.3 1 -0.2
v -0.2 1 -0.2
v -0.1 1 -0.2
v 0 1 -0.2
v -0.4 1 -0.3
v -0.3 1 -0.3
v -0.2 1 -0.3
v -0.1 1 -0.3
v 0.3 1 -0.3
v 0.4 1 -0.3
v -0.4 1 -0.4
v -0.3 1 -0.4
v 0.3 1 -0.4
v 0.4 1 -0.4

# faces
f 4/2/1 2/2/1 1/2/1
f 5/2/1 2/2/1 4/2/1
f 6/3/1 3/3/1 2/3/1
f 6/2/1 2/2/1 5/2/1
f 7/2/1 4/2/1 1/2/1
f 8/2/1 4/2/1 7/2/1
f 9/3/1 6/3/1 5/3/1
f 10/3/1 3/3/1 6/3/1
f 10/3/1 6/3/1 9/3/1
f 11/2/1 7/2/1 1/2/1
f 12/2/1 7/2/1 11/2/1
f 13/3/1 3/3/1 10/3/1
f 14/3/1 3/3/1 13/3/1
f 19/2/1 16/2/1 15/2/1
f 22/3/1 18/3/1 17/3/1
f 23/2/1 20/2/1 19/2/1
f 24/3/1 22/3/1 21/3/1
f 25/3/1 18/3/1 22/3/1
f 25/3/1 22/3/1 24/3/1
f 26/2/1 23/2/1 19/2/1
f 26/2/1 19/2/1 15/2/1
f 26/2/1 25/2/1 24/2/1
f 26/2/1 24/2/1 23/2/1
f 27/3/1 18/3/1 25/3/1
f 27/2/1 25/2/1 26/2/1
f 28/3/1 18/3/1 27/3/1
f 32/1/1 30/1/1 29/1/1
f 33/1/1 30/1/1 32/1/1
f 35/1/1 32/1/1 31/1/1
f 35/1/1 34/1/1 33/1/1
f 35/1/1 33/1/1 32/1/1
f 36/1/1 34/1/1 35/1/1
f 37/1/1 36/1/1 35/1/1
f 38/1/1 36/1/1 37/1/1
f 39/1/1 37/1/1 35/1/1
f 40/1/1 36/1/1 38/1/1
f 41/1/1 39/1/1 35/1/1
f 41/1/1 40/1/1 39/1/1
f 42/1/1 36/1/1 40/1/1
f 42/1/1 40/1/1 41/1/1
f 43/1/1 42/1/1 41/1/1
f 44/1/1 42/1/1 43/1/1
f 45/1/1 42/1/1 44/1/1
f 46/1/1 42/1/1 45/1/1
f 47/1/1 45/1/1 44/1/1
f 48/1/1 45/1/1 47/1/1
f 51/3/1 50/3/1 49/3/1
f 52/3/1 50/3/1 51/3/1
f 57/2/1 54/2/1 53/2/1
f 58/2/1 54/2/1 57/2/1
f 59/3/1 56/3/1 55/3/1
f 60/3/1 56/3/1 59/3/1
f 65/2/1 62/2/1 61/2/1
f 66/2/1 62/2/1 65/2/1
f 67/3/1 64/3/1 63/3/1
f 68/3/1 64/3/1 67/3/1
f 73/2/1 70/2/1 69/2/1
f 74/2/1 70/2/1 73/2/1
f 75/3/1 72/3/1 71/3/1
f 76/3/1 72/3/1 75/3/1
f 81/2/1 78/2/1 77/2/1
f 82/2/1 78/2/1 81/2/1
f 83/3/1 80/3/1 79/3/1
f 84/3/1 80/3/1 83/3/1
f 85/2/2 86/2/2 89/2/2
f 89/2/2 86/2/2 90/2/2
f 87/3/2 88/3/2 91/3/2
f 91/3/2 88/3/2 92/3/2
f 93/2/2 94/2/2 97/2/2
f 97/2/2 94/2/2 98/2/2
f 95/3/2 96/3/2 99/3/2
f 99/3/2 96/3/2 100/3/2
f 101/2/2 102/2/2 105/2/2
f 105/2/2 102/2/2 106/2/2
f 103/3/2 104/3/2 107/3/2
f 107/3/2 104/3/2 108/3/2
f 109/2/2 110/2/2 113/2/2
f 113/2/2 110/2/2 114/2/2
f 111/3/2 112/3/2 115/3/2
f 115/3/2 112/3/2 116/3/2
f 117/1/2 118/1/2 120/1/2
f 120/1/2 118/1/2 121/1/2
f 121/1/2 118/1/2 122/1/2
f 122/1/2 118/1/2 123/1/2
f 119/1/2 120/1/2 125/1/2
f 120/3/2 121/3/2 126/3/2
f 125/1/2 120/1/2 126/1/2
f 121/1/2 122/1/2 127/1/2
f 126/3/2 121/3/2 127/3/2
f 122/3/2 123/3/2 128/3/2
f 127/1/2 122/1/2 128/1/2
f 123/1/2 124/1/2 129/1/2
f 128/3/2 123/3/2 129/3/2
f 129/1/2 124/1/2 130/1/2
f 127/1/2 128/1/2 131/1/2
f 125/1/2 126/1/2 131/1/2
f 129/1/2 130/1/2 131/1/2
f 128/1/2 129/1/2 131/1/2
f 126/1/2 127/1/2 131/1/2
f 131/1/2 130/1/2 132/1/2
f 132/1/2 130/1/2 133/1/2
f 133/1/2 130/1/2 134/1/2
f 125/1/2 131/1/2 135/1/2
f 131/3/2 132/3/2 135/3/2
f 132/1/2 133/1/2 136/1/2
f 135/3/2 132/3/2 136/3/2
f 133/3/2 134/3/2 137/3/2
f 136/1/2 133/1/2 137/1/2
f 134/1/2 130/1/2 138/1/2
f 137/3/2 134/3/2 138/3/2
f 136/1/2 137/1/2 139/1/2
f 135/1/2 136/1/2 139/1/2
f 137/1/2 138/1/2 139/1/2
f 125/1/2 135/1/2 139/1/2
f 139/1/2 138/1/2 140/1/2
f 140/1/2 138/1/2 141/1/2
f 138/1/2 130/1/2 142/1/2
f 141/1/2 138/1/2 142/1/2
f 125/1/2 139/1/2 143/1/2
f 139/3/2 140/3/2 144/3/2
f 143/1/2 139/1/2 144/1/2
f 140/1/2 141/1/2 145/1/2
f 144/3/2 140/3/2 145/3/2
f 141/3/2 142/3/2 146/3/2
f 145/1/2 141/1/2 146/1/2
f 142/1/2 130/1/2 147/1/2
f 146/3/2 142/3/2 147/3/2
f 147/1/2 130/1/2 148/1/2
f 143/1/2 144/1/2 149/1/2
f 145/1/2 146/1/2 149/1/2
f 147/1/2 148/1/2 149/1/2
f 146/1/2 147/1/2 149/1/2
f 144/1/2 145/1/2 149/1/2
f 149/1/2 148/1/2 150/1/2
f 150/1/2 148/1/2 151/1/2
f 151/1/2 148/1/2 152/1/2
f 150/1/2 151/1/2 153/1/2
f 153/1/2 151/1/2 154/1/2
f 155/2/2 156/2/2 158/2/2
f 158/2/2 156/2/2 159/2/2
f 156/3/2 157/3/2 160/3/2
f 159/2/2 156/2/2 160/2/2
f 155/2/2 158/2/2 161/2/2
f 161/2/2 158/2/2 162/2/2
f 159/3/2 160/3/2 163/3/2
f 160/3/2 157/3/2 164/3/2
f 163/3/2 160/3/2 164/3/2
f 155/2/2 161/2/2 165/2/2
f 165/2/2 161/2/2 166/2/2
f 164/3/2 157/3/2 167/3/2
f 167/3/2 157/3/2 168/3/2
f 169/2/2 170/2/2 173/2/2
f 171/3/2 172/3/2 176/3/2
f 173/2/2 174/2/2 177/2/2
f 175/3/2 176/3/2 178/3/2
f 176/3/2 172/3/2 179/3/2
f 178/3/2 176/3/2 179/3/2
f 173/2/2 177/2/2 180/2/2
f 169/2/2 173/2/2 180/2/2
f 178/2/2 179/2/2 180/2/2
f 177/2/2 178/2/2 180/2/2
f 179/3/2 172/3/2 181/3/2
f 180/2/2 179/2/2 181/2/2
f 181/3/2 172/3/2 182/3/2
f 187/2/3 184/2/3 183/2/3
f 188/2/3 184/2/3 187/2/3
f 189/2/3 186/2/3 185/2/3
f 190/2/3 186/2/3 189/2/3
f 191/2/3 187/2/3 183/2/3
f 192/2/3 187/2/3 191/2/3
f 193/2/3 186/2/3 190/2/3
f 194/2/3 186/2/3 193/2/3
f 195/2/3 191/2/3 183/2/3
f 198/2/3 186/2/3 194/2/3
f 199/2/3 196/2/3 195/2/3
f 202/2/3 198/2/3 197/2/3
f 203/2/3 200/2/3 199/2/3
f 203/2/3 195/2/3 183/2/3
f 203/2/3 199/2/3 195/2/3
f 204/2/3 200/2/3 203/2/3
f 205/2/3 202/2/3 201/2/3
f 206/2/3 198/2/3 202/2/3
f 206/2/3 202/2/3 205/2/3
f 206/2/3 186/2/3 198/2/3
f 212/1/3 208/1/3 207/1/3
f 212/1/3 210/1/3 209/1/3
f 212/1/3 209/1/3 208/1/3
f 213/1/3 210/1/3 212/1/3
f 214/1/3 210/1/3 213/1/3
f 215/1/3 210/1/3 214/1/3
f 217/1/3 212/1/3 211/1/3
f 217/1/3 213/1/3 212/1/3
f 217/2/3 214/2/3 213/2/3
f 218/2/3 214/2/3 217/2/3
f 219/2/3 214/2/3 218/2/3
f 220/2/3 214/2/3 219/2/3
f 221/1/3 217/1/3 211/1/3
f 221/1/3 218/1/3 217/1/3
f 222/2/3 219/2/3 218/2/3
f 222/1/3 218/1/3 221/1/3
f 223/1/3 220/1/3 219/1/3
f 223/2/3 219/2/3 222/2/3
f 224/2/3 214/2/3 220/2/3
f 224/1/3 220/1/3 223/1/3
f 225/1/3 223/1/3 222/1/3
f 225/2/3 224/2/3 223/2/3
f 226/1/3 216/1/3 215/1/3
f 226/2/3 224/2/3 225/2/3
f 226/1/3 215/1/3 214/1/3
f 226/2/3 214/2/3 224/2/3
f 227/1/3 221/1/3 211/1/3
f 228/1/3 221/1/3 227/1/3
f 229/2/3 222/2/3 221/2/3
f 229/1/3 221/1/3 228/1/3
f 230/1/3 225/1/3 222/1/3
f 230/2/3 222/2/3 229/2/3
f 230/1/3 226/1/3 225/1/3
f 231/1/3 216/1/3 226/1/3
f 231/1/3 226/1/3 230/1/3
f 232/1/3 216/1/3 231/1/3
f 233/1/3 229/1/3 228/1/3
f 233/1/3 230/1/3 229/1/3
f 233/1/3 231/1/3 230/1/3
f 234/1/3 231/1/3 233/1/3
f 235/1/3 231/1/3 234/1/3
f 236/1/3 231/1/3 235/1/3
f 239/1/3 238/1/3 237/1/3
f 240/1/3 238/1/3 239/1/3
f 245/3/3 242/3/3 241/3/3
f 246/3/3 242/3/3 245/3/3
f 247/3/3 244/3/3 243/3/3
f 248/3/3 244/3/3 247/3/3
f 253/3/3 250/3/3 249/3/3
f 254/3/3 250/3/3 253/3/3
f 255/3/3 252/3/3 251/3/3
f 256/3/3 252/3/3 255/3/3
f 261/3/3 258/3/3 257/3/3
f 262/3/3 258/3/3 261/3/3
f 263/3/3 260/3/3 259/3/3
f 264/3/3 260/3/3 263/3/3
f 269/3/3 266/3/3 265/3/3
f 270/3/3 266/3/3 269/3/3
f 271/3/3 268/3/3 267/3/3
f 272/3/3 268/3/3 271/3/3
f 273/2/4 274/2/4 277/2/4
f 277/2/4 274/2/4 278/2/4
f 275/2/4 276/2/4 279/2/4
f 279/2/4 276/2/4 280/2/4
f 281/2/4 282/2/4 285/2/4
f 285/2/4 282/2/4 286/2/4
f 283/2/4 284/2/4 287/2/4
f 287/2/4 284/2/4 288/2/4
f 289/2/4 290/2/4 293/2/4
f 293/2/4 290/2/4 294/2/4
f 291/2/4 292/2/4 295/2/4
f 295/2/4 292/2/4 296/2/4
f 297/2/4 298/2/4 301/2/4
f 301/2/4 298/2/4 302/2/4
f 299/2/4 300/2/4 303/2/4
f 303/2/4 300/2/4 304/2/4
f 305/1/4 306/1/4 307/1/4
f 307/1/4 306/1/4 308/1/4
f 309/1/4 310/1/4 314/1/4
f 311/1/4 312/1/4 314/1/4
f 310/1/4 311/1/4 314/1/4
f 314/1/4 312/1/4 315/1/4
f 315/1/4 312/1/4 316/1/4
f 316/1/4 312/1/4 317/1/4
f 316/1/4 317/1/4 319/1/4
f 317/1/4 318/1/4 319/1/4
f 319/1/4 318/1/4 320/1/4
f 313/1/4 314/1/4 321/1/4
f 314/1/4 315/1/4 321/1/4
f 315/2/4 316/2/4 321/2/4
f 316/1/4 319/1/4 322/1/4
f 321/2/4 316/2/4 322/2/4
f 319/2/4 320/2/4 323/2/4
f 322/1/4 319/1/4 323/1/4
f 323/2/4 320/2/4 324/2/4
f 321/1/4 322/1/4 325/1/4
f 313/1/4 321/1/4 325/1/4
f 322/2/4 323/2/4 326/2/4
f 325/1/4 322/1/4 326/1/4
f 323/1/4 324/1/4 327/1/4
f 326/2/4 323/2/4 327/2/4
f 324/2/4 320/2/4 328/2/4
f 327/1/4 324/1/4 328/1/4
f 313/1/4 325/1/4 329/1/4
f 329/1/4 325/1/4 330/1/4
f 326/2/4 327/2/4 331/2/4
f 330/1/4 325/1/4 331/1/4
f 325/2/4 326/2/4 331/2/4
f 327/2/4 328/2/4 331/2/4
f 320/1/4 318/1/4 332/1/4
f 331/2/4 328/2/4 332/2/4
f 328/2/4 320/2/4 332/2/4
f 332/1/4 318/1/4 333/1/4
f 333/1/4 318/1/4 334/1/4
f 330/1/4 331/1/4 335/1/4
f 332/1/4 333/1/4 335/1/4
f 331/1/4 332/1/4 335/1/4
f 335/1/4 333/1/4 336/1/4
f 336/1/4 333/1/4 337/1/4
f 337/1/4 333/1/4 338/1/4
f 339/3/4 340/3/4 343/3/4
f 343/3/4 340/3/4 344/3/4
f 344/3/4 340/3/4 345/3/4
f 345/3/4 340/3/4 346/3/4
f 341/3/4 342/3/4 347/3/4
f 347/3/4 342/3/4 348/3/4
f 348/3/4 342/3/4 349/3/4
f 349/3/4 342/3/4 350/3/4
f 343/2/4 344/2/4 351/2/4
f 344/3/4 345/3/4 351/3/4
f 351/3/4 345/3/4 352/3/4
f 348/3/4 349/3/4 353/3/4
f 349/2/4 350/2/4 354/2/4
f 353/3/4 349/3/4 354/3/4
f 343/2/4 351/2/4 355/2/4
f 354/2/4 350/2/4 358/2/4
f 343/2/4 355/2/4 359/2/4
f 355/3/4 356/3/4 360/3/4
f 359/2/4 355/2/4 360/2/4
f 360/3/4 356/3/4 361/3/4
f 357/3/4 358/3/4 364/3/4
f 358/2/4 350/2/4 365/2/4
f 364/3/4 358/3/4 365/3/4
f 365/2/4 350/2/4 366/2/4
f 361/3/4 362/3/4 367/3/4
f 359/3/4 360/3/4 367/3/4
f 360/3/4 361/3/4 367/3/4
f 367/3/4 362/3/4 368/3/4
f 363/3/4 364/3/4 369/3/4
f 365/3/4 366/3/4 369/3/4
f 364/3/4 365/3/4 369/3/4
f 369/3/4 366/3/4 370/3/4
f 373/2/5 372/2/5 371/2/5
f 374/2/5 372/2/5 373/2/5
f 375/2/5 372/2/5 374/2/5
f 376/2/5 372/2/5 375/2/5
f 377/3/5 374/3/5 373/3/5
f 378/2/5 375/2/5 374/2/5
f 378/3/5 374/3/5 377/3/5
f 379/3/5 376/3/5 375/3/5
f 379/2/5 375/2/5 378/2/5
f 380/3/5 376/3/5 379/3/5
f 383/1/5 382/1/5 381/1/5
f 384/1/5 382/1/5 383/1/5
f 389/2/5 386/2/5 385/2/5
f 390/2/5 386/2/5 389/2/5
f 391/2/5 388/2/5 387/2/5
f 392/2/5 388/2/5 391/2/5
f 397/3/5 394/3/5 393/3/5
f 398/3/5 394/3/5 397/3/5
f 399/3/5 396/3/5 395/3/5
f 400/3/5 396/3/5 399/3/5
f 406/2/5 402/2/5 401/2/5
f 407/2/5 402/2/5 406/2/5
f 408/2/5 404/2/5 403/2/5
f 409/2/5 404/2/5 408/2/5
f 411/2/5 406/2/5 405/2/5
f 412/2/5 406/2/5 411/2/5
f 413/2/5 410/2/5 409/2/5
f 414/2/5 410/2/5 413/2/5
f 419/3/5 416/3/5 415/3/5
f 420/3/5 416/3/5 419/3/5
f 423/3/5 418/3/5 417/3/5
f 424/3/5 418/3/5 423/3/5
f 425/3/5 421/3/5 420/3/5
f 426/3/5 421/3/5 425/3/5
f 427/3/5 423/3/5 422/3/5
f 428/3/5 423/3/5 427/3/5
f 431/2/5 430/2/5 429/2/5
f 432/2/5 430/2/5 431/2/5
f 437/2/5 434/2/5 433/2/5
f 438/2/5 434/2/5 437/2/5
f 439/2/5 436/2/5 435/2/5
f 440/2/5 436/2/5 439/2/5
f 443/2/5 442/2/5 441/2/5
f 444/2/5 442/2/5 443/2/5
f 445/2/6 446/2/6 447/2/6
f 447/2/6 446/2/6 448/2/6
f 449/2/6 450/2/6 453/2/6
f 453/2/6 450/2/6 454/2/6
f 451/2/6 452/2/6 455/2/6
f 455/2/6 452/2/6 456/2/6
f 457/2/6 458/2/6 459/2/6
f 459/2/6 458/2/6 460/2/6
f 461/2/6 462/2/6 466/2/6
f 466/2/6 462/2/6 467/2/6
f 463/2/6 464/2/6 468/2/6
f 468/2/6 464/2/6 469/2/6
f 465/2/6 466/2/6 471/2/6
f 471/2/6 466/2/6 472/2/6
f 469/2/6 470/2/6 473/2/6
f 473/2/6 470/2/6 474/2/6
f 475/3/6 476/3/6 479/3/6
f 479/3/6 476/3/6 480/3/6
f 477/3/6 478/3/6 483/3/6
f 483/3/6 478/3/6 484/3/6
f 480/3/6 481/3/6 485/3/6
f 485/3/6 481/3/6 486/3/6
f 482/3/6 483/3/6 487/3/6
f 487/3/6 483/3/6 488/3/6
f 489/2/6 490/2/6 493/2/6
f 493/2/6 490/2/6 494/2/6
f 491/2/6 492/2/6 495/2/6
f 495/2/6 492/2/6 496/2/6
f 497/3/6 498/3/6 501/3/6
f 501/3/6 498/3/6 502/3/6
f 499/3/6 500/3/6 503/3/6
f 503/3/6 500/3/6 504/3/6
f 505/1/6 506/1/6 507/1/6
f 507/1/6 506/1/6 508/1/6
f 509/2/6 510/2/6 511/2/6
f 511/2/6 510/2/6 512/2/6
f 511/1/6 512/1/6 513/1/6
f 513/1/6 512/1/6 514/1/6
f 509/2/6 511/2/6 515/2/6
f 511/1/6 513/1/6 516/1/6
f 515/2/6 511/2/6 516/2/6
f 513/2/6 514/2/6 517/2/6
f 516/1/6 513/1/6 517/1/6
f 517/2/6 514/2/6 518/2/6
f 514/1/6 512/1/6 519/1/6
f 518/2/6 514/2/6 519/2/6
f 512/2/6 510/2/6 520/2/6
f 519/1/6 512/1/6 520/1/6
f 517/1/6 518/1/6 521/1/6
f 509/2/6 515/2/6 521/2/6
f 515/1/6 516/1/6 521/1/6
f 516/1/6 517/1/6 521/1/6
f 521/1/6 518/1/6 522/1/6
f 522/1/6 518/1/6 523/1/6
f 518/2/6 519/2/6 524/2/6
f 523/1/6 518/1/6 524/1/6
f 519/2/6 520/2/6 524/2/6
f 521/2/6 522/2/6 525/2/6
f 509/2/6 521/2/6 525/2/6
f 525/2/6 522/2/6 526/2/6
f 522/1/6 523/1/6 527/1/6
f 526/2/6 522/2/6 527/2/6
f 523/2/6 524/2/6 528/2/6
f 527/1/6 523/1/6 528/1/6
f 520/2/6 510/2/6 529/2/6
f 528/2/6 524/2/6 529/2/6
f 524/2/6 520/2/6 529/2/6
f 529/2/6 510/2/6 530/2/6
f 525/3/6 526/3/6 531/3/6
f 527/2/6 528/2/6 532/2/6
f 531/3/6 526/3/6 532/3/6
f 526/2/6 527/2/6 532/2/6
f 528/2/6 529/2/6 532/2/6
f 529/3/6 530/3/6 533/3/6
f 532/2/6 529/2/6 533/2/6
f 533/3/6 530/3/6 534/3/6
